<svg width="180" height="34" viewBox="0 0 180 34" fill="none" xmlns="http://www.w3.org/2000/svg">
<path d="M38.168 25.168C37.8 25.168 37.512 25.064 37.304 24.856C37.112 24.648 37.016 24.36 37.016 23.992V9.088C37.016 8.704 37.12 8.416 37.328 8.224C37.536 8.016 37.816 7.912 38.168 7.912C38.504 7.912 38.76 7.976 38.936 8.104C39.128 8.216 39.304 8.424 39.464 8.728L45.752 20.464H45.008L51.272 8.728C51.432 8.424 51.6 8.216 51.776 8.104C51.952 7.976 52.208 7.912 52.544 7.912C52.896 7.912 53.168 8.016 53.36 8.224C53.552 8.416 53.648 8.704 53.648 9.088V23.992C53.648 24.36 53.552 24.648 53.36 24.856C53.184 25.064 52.912 25.168 52.544 25.168C52.176 25.168 51.896 25.064 51.704 24.856C51.512 24.648 51.416 24.36 51.416 23.992V11.608H51.944L46.376 21.904C46.248 22.144 46.112 22.32 45.968 22.432C45.824 22.544 45.624 22.6 45.368 22.6C45.112 22.6 44.904 22.544 44.744 22.432C44.584 22.304 44.44 22.128 44.312 21.904L38.696 11.584H39.272V23.992C39.272 24.36 39.176 24.648 38.984 24.856C38.808 25.064 38.536 25.168 38.168 25.168ZM58.5759 25.144C58.1919 25.144 57.8959 25.032 57.6879 24.808C57.4799 24.568 57.3759 24.24 57.3759 23.824V14.464C57.3759 14.048 57.4799 13.728 57.6879 13.504C57.8959 13.28 58.1919 13.168 58.5759 13.168C58.9599 13.168 59.2559 13.28 59.4639 13.504C59.6879 13.728 59.7999 14.048 59.7999 14.464V23.824C59.7999 24.24 59.6959 24.568 59.4879 24.808C59.2799 25.032 58.9759 25.144 58.5759 25.144ZM58.5759 10.672C58.0959 10.672 57.7199 10.552 57.4479 10.312C57.1919 10.072 57.0639 9.736 57.0639 9.304C57.0639 8.856 57.1919 8.52 57.4479 8.296C57.7199 8.056 58.0959 7.936 58.5759 7.936C59.0559 7.936 59.4239 8.056 59.6799 8.296C59.9519 8.52 60.0879 8.856 60.0879 9.304C60.0879 9.736 59.9519 10.072 59.6799 10.312C59.4239 10.552 59.0559 10.672 58.5759 10.672ZM67.3158 25.216C66.6118 25.216 65.8838 25.136 65.1318 24.976C64.3958 24.816 63.7158 24.544 63.0918 24.16C62.8838 24.016 62.7398 23.856 62.6598 23.68C62.5798 23.504 62.5478 23.328 62.5638 23.152C62.5958 22.96 62.6678 22.8 62.7798 22.672C62.9078 22.528 63.0598 22.44 63.2358 22.408C63.4278 22.376 63.6278 22.416 63.8358 22.528C64.4598 22.88 65.0598 23.128 65.6358 23.272C66.2118 23.4 66.7798 23.464 67.3398 23.464C68.1878 23.464 68.8278 23.312 69.2598 23.008C69.6918 22.704 69.9078 22.296 69.9078 21.784C69.9078 21.368 69.7638 21.048 69.4758 20.824C69.1878 20.584 68.7558 20.4 68.1798 20.272L65.8998 19.816C64.9078 19.608 64.1558 19.24 63.6438 18.712C63.1318 18.184 62.8758 17.512 62.8758 16.696C62.8758 15.96 63.0758 15.32 63.4758 14.776C63.8758 14.232 64.4358 13.816 65.1558 13.528C65.8758 13.224 66.7078 13.072 67.6518 13.072C68.3558 13.072 69.0198 13.16 69.6438 13.336C70.2678 13.512 70.8438 13.776 71.3718 14.128C71.5798 14.24 71.7158 14.392 71.7798 14.584C71.8438 14.76 71.8518 14.936 71.8038 15.112C71.7718 15.288 71.6918 15.448 71.5638 15.592C71.4358 15.72 71.2758 15.8 71.0838 15.832C70.9078 15.848 70.7078 15.8 70.4838 15.688C70.0038 15.384 69.5238 15.168 69.0438 15.04C68.5798 14.912 68.1158 14.848 67.6518 14.848C66.8038 14.848 66.1638 15.008 65.7318 15.328C65.3158 15.632 65.1078 16.048 65.1078 16.576C65.1078 16.976 65.2358 17.304 65.4918 17.56C65.7478 17.816 66.1478 18 66.6918 18.112L68.9718 18.568C70.0118 18.776 70.7958 19.128 71.3238 19.624C71.8678 20.12 72.1398 20.792 72.1398 21.64C72.1398 22.744 71.6998 23.616 70.8198 24.256C69.9398 24.896 68.7718 25.216 67.3158 25.216ZM82.6769 25.168C82.2769 25.168 81.9649 25.056 81.7409 24.832C81.5329 24.608 81.4289 24.296 81.4289 23.896V9.352C81.4289 8.936 81.5409 8.624 81.7649 8.416C81.9889 8.192 82.3009 8.08 82.7009 8.08H88.4369C90.2609 8.08 91.6689 8.536 92.6609 9.448C93.6529 10.344 94.1489 11.608 94.1489 13.24C94.1489 14.888 93.6529 16.168 92.6609 17.08C91.6689 17.976 90.2609 18.424 88.4369 18.424H83.9249V23.896C83.9249 24.296 83.8209 24.608 83.6129 24.832C83.4049 25.056 83.0929 25.168 82.6769 25.168ZM83.9249 16.432H88.0769C89.2769 16.432 90.1809 16.168 90.7889 15.64C91.4129 15.096 91.7249 14.296 91.7249 13.24C91.7249 12.2 91.4129 11.416 90.7889 10.888C90.1809 10.344 89.2769 10.072 88.0769 10.072H83.9249V16.432ZM100.331 25.216C99.0834 25.216 98.1394 24.856 97.4994 24.136C96.8754 23.4 96.5634 22.344 96.5634 20.968V9.136C96.5634 8.736 96.6674 8.432 96.8754 8.224C97.0834 8.016 97.3794 7.912 97.7634 7.912C98.1474 7.912 98.4434 8.016 98.6514 8.224C98.8754 8.432 98.9874 8.736 98.9874 9.136V20.824C98.9874 21.624 99.1474 22.224 99.4674 22.624C99.8034 23.008 100.283 23.2 100.907 23.2C101.051 23.2 101.179 23.2 101.291 23.2C101.403 23.184 101.515 23.168 101.627 23.152C101.819 23.136 101.955 23.192 102.035 23.32C102.115 23.432 102.155 23.672 102.155 24.04C102.155 24.376 102.083 24.64 101.939 24.832C101.795 25.008 101.563 25.12 101.243 25.168C101.099 25.184 100.947 25.192 100.787 25.192C100.627 25.208 100.475 25.216 100.331 25.216ZM107.643 25.216C106.827 25.216 106.091 25.056 105.435 24.736C104.795 24.416 104.291 23.984 103.923 23.44C103.555 22.896 103.371 22.28 103.371 21.592C103.371 20.728 103.587 20.048 104.019 19.552C104.467 19.04 105.195 18.68 106.203 18.472C107.227 18.248 108.603 18.136 110.331 18.136H111.459V19.624H110.355C109.203 19.624 108.291 19.68 107.619 19.792C106.947 19.904 106.467 20.096 106.179 20.368C105.907 20.624 105.771 20.984 105.771 21.448C105.771 22.056 105.979 22.552 106.395 22.936C106.811 23.304 107.387 23.488 108.123 23.488C108.715 23.488 109.235 23.352 109.683 23.08C110.131 22.792 110.483 22.408 110.739 21.928C111.011 21.448 111.147 20.896 111.147 20.272V17.512C111.147 16.6 110.955 15.944 110.571 15.544C110.187 15.144 109.555 14.944 108.675 14.944C108.163 14.944 107.627 15.008 107.067 15.136C106.523 15.264 105.955 15.48 105.363 15.784C105.091 15.912 104.859 15.952 104.667 15.904C104.475 15.856 104.323 15.752 104.211 15.592C104.099 15.416 104.035 15.232 104.019 15.04C104.019 14.832 104.067 14.632 104.163 14.44C104.275 14.248 104.459 14.104 104.715 14.008C105.419 13.672 106.115 13.432 106.803 13.288C107.491 13.144 108.139 13.072 108.747 13.072C109.819 13.072 110.699 13.24 111.387 13.576C112.091 13.912 112.611 14.424 112.947 15.112C113.283 15.8 113.451 16.688 113.451 17.776V23.944C113.451 24.328 113.355 24.632 113.163 24.856C112.971 25.064 112.691 25.168 112.323 25.168C111.971 25.168 111.691 25.064 111.483 24.856C111.275 24.632 111.171 24.328 111.171 23.944V22.384H111.387C111.259 22.976 111.019 23.488 110.667 23.92C110.331 24.336 109.907 24.656 109.395 24.88C108.883 25.104 108.299 25.216 107.643 25.216ZM117.99 25.168C117.606 25.168 117.31 25.064 117.102 24.856C116.894 24.632 116.79 24.328 116.79 23.944V14.344C116.79 13.944 116.894 13.64 117.102 13.432C117.31 13.224 117.598 13.12 117.966 13.12C118.35 13.12 118.638 13.224 118.83 13.432C119.038 13.64 119.142 13.944 119.142 14.344V16.216L118.878 15.784C119.23 14.888 119.782 14.216 120.534 13.768C121.286 13.304 122.15 13.072 123.126 13.072C124.054 13.072 124.822 13.248 125.43 13.6C126.054 13.936 126.518 14.456 126.822 15.16C127.126 15.848 127.278 16.72 127.278 17.776V23.944C127.278 24.328 127.174 24.632 126.966 24.856C126.758 25.064 126.462 25.168 126.078 25.168C125.678 25.168 125.374 25.064 125.166 24.856C124.958 24.632 124.854 24.328 124.854 23.944V17.92C124.854 16.912 124.654 16.176 124.254 15.712C123.87 15.248 123.262 15.016 122.43 15.016C121.454 15.016 120.67 15.32 120.078 15.928C119.502 16.536 119.214 17.352 119.214 18.376V23.944C119.214 24.76 118.806 25.168 117.99 25.168ZM135.61 25.216C134.65 25.216 133.842 25.048 133.186 24.712C132.53 24.376 132.042 23.88 131.722 23.224C131.402 22.568 131.242 21.768 131.242 20.824V15.16H129.802C129.482 15.16 129.234 15.08 129.058 14.92C128.882 14.744 128.794 14.512 128.794 14.224C128.794 13.92 128.882 13.688 129.058 13.528C129.234 13.368 129.482 13.288 129.802 13.288H131.242V10.816C131.242 10.416 131.346 10.112 131.554 9.904C131.778 9.696 132.082 9.592 132.466 9.592C132.85 9.592 133.146 9.696 133.354 9.904C133.562 10.112 133.666 10.416 133.666 10.816V13.288H136.474C136.794 13.288 137.042 13.368 137.218 13.528C137.394 13.688 137.482 13.92 137.482 14.224C137.482 14.512 137.394 14.744 137.218 14.92C137.042 15.08 136.794 15.16 136.474 15.16H133.666V20.632C133.666 21.48 133.842 22.12 134.194 22.552C134.562 22.984 135.154 23.2 135.97 23.2C136.258 23.2 136.506 23.176 136.714 23.128C136.938 23.064 137.122 23.024 137.266 23.008C137.442 23.008 137.586 23.072 137.698 23.2C137.81 23.312 137.866 23.536 137.866 23.872C137.866 24.112 137.818 24.336 137.722 24.544C137.642 24.752 137.49 24.888 137.266 24.952C137.074 25.016 136.81 25.072 136.474 25.12C136.154 25.184 135.866 25.216 135.61 25.216ZM140.795 25.144C140.411 25.144 140.115 25.032 139.907 24.808C139.699 24.568 139.595 24.24 139.595 23.824V14.464C139.595 14.048 139.699 13.728 139.907 13.504C140.115 13.28 140.411 13.168 140.795 13.168C141.179 13.168 141.475 13.28 141.683 13.504C141.907 13.728 142.019 14.048 142.019 14.464V23.824C142.019 24.24 141.915 24.568 141.707 24.808C141.499 25.032 141.195 25.144 140.795 25.144ZM140.795 10.672C140.315 10.672 139.939 10.552 139.667 10.312C139.411 10.072 139.283 9.736 139.283 9.304C139.283 8.856 139.411 8.52 139.667 8.296C139.939 8.056 140.315 7.936 140.795 7.936C141.275 7.936 141.643 8.056 141.899 8.296C142.171 8.52 142.307 8.856 142.307 9.304C142.307 9.736 142.171 10.072 141.899 10.312C141.643 10.552 141.275 10.672 140.795 10.672ZM150.591 25.216C149.391 25.216 148.351 24.968 147.471 24.472C146.607 23.96 145.935 23.248 145.455 22.336C144.975 21.408 144.735 20.32 144.735 19.072C144.735 18.144 144.871 17.312 145.143 16.576C145.415 15.824 145.799 15.192 146.295 14.68C146.807 14.168 147.423 13.776 148.143 13.504C148.879 13.216 149.695 13.072 150.591 13.072C151.151 13.072 151.735 13.16 152.343 13.336C152.967 13.496 153.543 13.768 154.071 14.152C154.279 14.28 154.407 14.44 154.455 14.632C154.519 14.808 154.527 14.992 154.479 15.184C154.447 15.376 154.359 15.544 154.215 15.688C154.087 15.816 153.927 15.896 153.735 15.928C153.543 15.944 153.335 15.888 153.111 15.76C152.727 15.488 152.335 15.296 151.935 15.184C151.535 15.056 151.151 14.992 150.783 14.992C150.207 14.992 149.695 15.088 149.247 15.28C148.815 15.456 148.447 15.72 148.143 16.072C147.839 16.408 147.607 16.832 147.447 17.344C147.303 17.856 147.231 18.44 147.231 19.096C147.231 20.408 147.535 21.44 148.143 22.192C148.767 22.928 149.647 23.296 150.783 23.296C151.151 23.296 151.535 23.24 151.935 23.128C152.335 23.016 152.727 22.824 153.111 22.552C153.335 22.424 153.543 22.376 153.735 22.408C153.927 22.44 154.079 22.528 154.191 22.672C154.319 22.8 154.399 22.96 154.431 23.152C154.479 23.328 154.471 23.512 154.407 23.704C154.343 23.896 154.207 24.056 153.999 24.184C153.487 24.552 152.927 24.816 152.319 24.976C151.727 25.136 151.151 25.216 150.591 25.216ZM160.284 25.216C159.468 25.216 158.732 25.056 158.076 24.736C157.436 24.416 156.932 23.984 156.564 23.44C156.196 22.896 156.012 22.28 156.012 21.592C156.012 20.728 156.228 20.048 156.66 19.552C157.108 19.04 157.836 18.68 158.844 18.472C159.868 18.248 161.244 18.136 162.972 18.136H164.1V19.624H162.996C161.844 19.624 160.932 19.68 160.26 19.792C159.588 19.904 159.108 20.096 158.82 20.368C158.548 20.624 158.412 20.984 158.412 21.448C158.412 22.056 158.62 22.552 159.036 22.936C159.452 23.304 160.028 23.488 160.764 23.488C161.356 23.488 161.876 23.352 162.324 23.08C162.772 22.792 163.124 22.408 163.38 21.928C163.652 21.448 163.788 20.896 163.788 20.272V17.512C163.788 16.6 163.596 15.944 163.212 15.544C162.828 15.144 162.196 14.944 161.316 14.944C160.804 14.944 160.268 15.008 159.708 15.136C159.164 15.264 158.596 15.48 158.004 15.784C157.732 15.912 157.5 15.952 157.308 15.904C157.116 15.856 156.964 15.752 156.852 15.592C156.74 15.416 156.676 15.232 156.66 15.04C156.66 14.832 156.708 14.632 156.804 14.44C156.916 14.248 157.1 14.104 157.356 14.008C158.06 13.672 158.756 13.432 159.444 13.288C160.132 13.144 160.78 13.072 161.388 13.072C162.46 13.072 163.34 13.24 164.028 13.576C164.732 13.912 165.252 14.424 165.588 15.112C165.924 15.8 166.092 16.688 166.092 17.776V23.944C166.092 24.328 165.996 24.632 165.804 24.856C165.612 25.064 165.332 25.168 164.964 25.168C164.612 25.168 164.332 25.064 164.124 24.856C163.916 24.632 163.812 24.328 163.812 23.944V22.384H164.028C163.9 22.976 163.66 23.488 163.308 23.92C162.972 24.336 162.548 24.656 162.036 24.88C161.524 25.104 160.94 25.216 160.284 25.216ZM173.535 25.216C172.831 25.216 172.103 25.136 171.351 24.976C170.615 24.816 169.935 24.544 169.311 24.16C169.103 24.016 168.959 23.856 168.879 23.68C168.799 23.504 168.767 23.328 168.783 23.152C168.815 22.96 168.887 22.8 168.999 22.672C169.127 22.528 169.279 22.44 169.455 22.408C169.647 22.376 169.847 22.416 170.055 22.528C170.679 22.88 171.279 23.128 171.855 23.272C172.431 23.4 172.999 23.464 173.559 23.464C174.407 23.464 175.047 23.312 175.479 23.008C175.911 22.704 176.127 22.296 176.127 21.784C176.127 21.368 175.983 21.048 175.695 20.824C175.407 20.584 174.975 20.4 174.399 20.272L172.119 19.816C171.127 19.608 170.375 19.24 169.863 18.712C169.351 18.184 169.095 17.512 169.095 16.696C169.095 15.96 169.295 15.32 169.695 14.776C170.095 14.232 170.655 13.816 171.375 13.528C172.095 13.224 172.927 13.072 173.871 13.072C174.575 13.072 175.239 13.16 175.863 13.336C176.487 13.512 177.063 13.776 177.591 14.128C177.799 14.24 177.935 14.392 177.999 14.584C178.063 14.76 178.071 14.936 178.023 15.112C177.991 15.288 177.911 15.448 177.783 15.592C177.655 15.72 177.495 15.8 177.303 15.832C177.127 15.848 176.927 15.8 176.703 15.688C176.223 15.384 175.743 15.168 175.263 15.04C174.799 14.912 174.335 14.848 173.871 14.848C173.023 14.848 172.383 15.008 171.951 15.328C171.535 15.632 171.327 16.048 171.327 16.576C171.327 16.976 171.455 17.304 171.711 17.56C171.967 17.816 172.367 18 172.911 18.112L175.191 18.568C176.231 18.776 177.015 19.128 177.543 19.624C178.087 20.12 178.359 20.792 178.359 21.64C178.359 22.744 177.919 23.616 177.039 24.256C176.159 24.896 174.991 25.216 173.535 25.216Z" fill="#12835E"/>
<path d="M28 15C28 22.732 21.732 29 14 29C6.26801 29 0 22.732 0 15C0 7.26801 6.26801 1 14 1C21.732 1 28 7.26801 28 15ZM1.33893 15C1.33893 21.9925 7.00748 27.6611 14 27.6611C20.9925 27.6611 26.6611 21.9925 26.6611 15C26.6611 8.00748 20.9925 2.33893 14 2.33893C7.00748 2.33893 1.33893 8.00748 1.33893 15Z" fill="#12835E"/>
<line x1="14.0488" y1="2.30234" x2="14.0488" y2="28.5523" stroke="#12835E" stroke-width="1.4"/>
<path d="M9.33334 2.55557C13.4656 25.0937 17.2773 11.9464 18.6667 2.55557" stroke="#12835E" stroke-width="1.4"/>
<path d="M6.22222 4.11111C13.1093 23.8319 19.4622 12.3281 21.7778 4.11111" stroke="#12835E" stroke-width="1.4"/>
<path d="M3.11111 7.22223C12.753 21.3085 21.6471 13.0915 24.8889 7.22223" stroke="#12835E" stroke-width="1.4"/>
<path d="M1.55555 10.3333C12.5749 18.7851 22.7395 13.8549 26.4444 10.3333" stroke="#12835E" stroke-width="1.4"/>
<path d="M13.6535 28.2473C12.5102 18.7508 5.28812 18.7105 1.81996 19.8775" stroke="#12835E" stroke-width="1.4"/>
<path d="M26.7076 19.6125C17.0156 18.082 14.3768 25.1425 14.2688 28.8641" stroke="#12835E" stroke-width="1.4"/>
</svg>
