<svg width="14" height="14" viewBox="0 0 14 14" fill="none" xmlns="http://www.w3.org/2000/svg">
<path d="M13.6 4.42086V4.42105C13.6 5.06206 13.3665 5.64289 12.992 6.0949L12.9 6.20592V6.35011V13.2632C12.9 13.3589 12.8637 13.4469 12.805 13.5087C12.7469 13.5698 12.6728 13.6 12.6 13.6H11.2C11.1272 13.6 11.0531 13.5698 10.995 13.5087C10.9363 13.4469 10.9 13.3589 10.9 13.2632V9.57895V9.17895H10.5H7.7H7.3V9.57895V13.2632C7.3 13.3589 7.26367 13.4469 7.20498 13.5087C7.14695 13.5698 7.07275 13.6 7 13.6H1.4C1.32725 13.6 1.25305 13.5698 1.19503 13.5087C1.13633 13.4469 1.1 13.3589 1.1 13.2632V6.35011V6.20592L1.00801 6.0949C0.633498 5.64289 0.4 5.06206 0.4 4.42105L0.4 4.42086C0.399968 4.35593 0.416843 4.29342 0.447265 4.24027L0.447592 4.23969L2.34389 0.913588L2.34401 0.913388C2.52758 0.590976 2.85812 0.4 3.1962 0.4H10.8031C10.9717 0.400637 11.1386 0.446822 11.2878 0.535734C11.4373 0.624739 11.5648 0.754127 11.6564 0.913393C11.6565 0.913585 11.6566 0.913777 11.6567 0.913969L13.5524 4.23966L13.5527 4.24027C13.5832 4.29342 13.6 4.35593 13.6 4.42086ZM12.9859 4.65406L13.0018 4.52282L12.9363 4.40795L11.1513 1.27564L11.0362 1.07368H10.8038H9.254H8.77082L8.86103 1.54837L9.32051 3.96602L9.2999 3.97036L9.38107 4.36097C9.38566 4.38307 9.39071 4.40269 9.39408 4.41561C9.39619 4.4237 9.39758 4.42893 9.39865 4.43303C9.39919 4.43509 9.39965 4.43687 9.40008 4.43857C9.40909 5.445 10.1937 6.29474 11.2 6.29474L11.2004 6.29474C11.6445 6.29428 12.0699 6.12334 12.3974 5.81936C12.7245 5.51587 12.9318 5.10096 12.9859 4.65406ZM5.21191 4.39437L5.20373 4.43748L5.20509 4.48134C5.23563 5.46681 6.00736 6.29474 7 6.29474C7.99264 6.29474 8.76437 5.46681 8.79491 4.48134L8.79627 4.43743L8.78807 4.39428L8.21897 1.39902L8.15716 1.07368H7.826H6.1733H5.84207L5.78031 1.39911L5.21191 4.39437ZM3.1962 1.07368H2.96376L2.84867 1.27564L1.06367 4.40795L0.998214 4.52282L1.0141 4.65406C1.06818 5.10096 1.2755 5.51587 1.60256 5.81936C1.93014 6.12334 2.35547 6.29428 2.79959 6.29474H2.8C3.80609 6.29474 4.59064 5.44529 4.59992 4.43909C4.60079 4.43576 4.60186 4.43179 4.60348 4.4258C4.60404 4.4237 4.60468 4.42134 4.6054 4.41868C4.60868 4.40651 4.61375 4.38759 4.61844 4.36651L4.70638 3.97154L4.6801 3.966L5.13898 1.54827L5.22906 1.07368H4.746H3.1962ZM5.07489 10.7158H5.47489V10.3158V8.10526V7.70526H5.07489H3H2.6V8.10526V10.3158V10.7158H3H5.07489Z" fill="white" stroke="#12835E" stroke-width="0.8"/>
</svg>
