<svg width="13" height="14" viewBox="0 0 13 14" fill="none" xmlns="http://www.w3.org/2000/svg">
<path d="M6.5 0.5C7.21689 0.5 7.91263 0.80635 8.4317 1.36535C8.95193 1.9256 9.25 2.69289 9.25 3.5C9.25 4.30711 8.95193 5.0744 8.4317 5.63465C7.91263 6.19365 7.21689 6.5 6.5 6.5C5.78311 6.5 5.08737 6.19365 4.5683 5.63465C4.04807 5.0744 3.75 4.30711 3.75 3.5C3.75 2.69289 4.04807 1.9256 4.5683 1.36535C5.08737 0.806351 5.78311 0.5 6.5 0.5ZM6.5 9.25C8.22951 9.25 9.76979 9.62822 10.8597 10.2151C11.9698 10.8128 12.5 11.5551 12.5 12.25V13.5H0.5V12.25C0.5 11.5551 1.0302 10.8128 2.14033 10.2151C3.23021 9.62822 4.77049 9.25 6.5 9.25Z" fill="white" stroke="#12835E"/>
</svg>
