<svg width="14" height="14" viewBox="0 0 14 14" fill="none" xmlns="http://www.w3.org/2000/svg">
<g clip-path="url(#clip0_375_19)">
<path d="M12.25 14.0003H11.0833V11.0586C11.0829 10.6012 10.901 10.1628 10.5776 9.83939C10.2542 9.516 9.81575 9.33412 9.35842 9.33366H4.64158C4.18425 9.33412 3.74578 9.516 3.42239 9.83939C3.09901 10.1628 2.91713 10.6012 2.91667 11.0586V14.0003H1.75V11.0586C1.75093 10.292 2.05587 9.55702 2.59795 9.01494C3.14002 8.47286 3.87497 8.16792 4.64158 8.16699H9.35842C10.125 8.16792 10.86 8.47286 11.4021 9.01494C11.9441 9.55702 12.2491 10.292 12.25 11.0586V14.0003Z" fill="#12835E"/>
<path d="M7 6.99994C6.30777 6.99994 5.63108 6.79467 5.05551 6.41008C4.47993 6.0255 4.03133 5.47887 3.76642 4.83933C3.50152 4.19979 3.4322 3.49606 3.56725 2.81712C3.7023 2.13819 4.03564 1.51455 4.52513 1.02507C5.01461 0.535583 5.63825 0.20224 6.31719 0.0671921C6.99612 -0.0678562 7.69985 0.00145547 8.33939 0.266362C8.97894 0.531269 9.52556 0.979873 9.91015 1.55544C10.2947 2.13102 10.5 2.80771 10.5 3.49994C10.4991 4.42791 10.13 5.31761 9.47385 5.97379C8.81768 6.62997 7.92798 6.99901 7 6.99994V6.99994ZM7 1.16661C6.53851 1.16661 6.08739 1.30345 5.70367 1.55984C5.31996 1.81623 5.02089 2.18065 4.84428 2.60701C4.66768 3.03337 4.62147 3.50253 4.7115 3.95515C4.80153 4.40777 5.02376 4.82353 5.35009 5.14986C5.67641 5.47618 6.09217 5.69841 6.54479 5.78844C6.99741 5.87847 7.46657 5.83226 7.89293 5.65566C8.31929 5.47906 8.68371 5.17999 8.9401 4.79627C9.19649 4.41256 9.33334 3.96143 9.33334 3.49994C9.33334 2.8811 9.0875 2.28761 8.64992 1.85002C8.21233 1.41244 7.61884 1.16661 7 1.16661Z" fill="#12835E"/>
</g>
<defs>
<clipPath id="clip0_375_19">
<rect width="14" height="14" fill="white"/>
</clipPath>
</defs>
</svg>
