<svg width="19" height="12" viewBox="0 0 19 12" fill="none" xmlns="http://www.w3.org/2000/svg">
<path d="M15.945 1.31179L9.47829 7.77845L3.01163 1.31179C2.85732 1.15748 2.67414 1.03509 2.47253 0.951577C2.27093 0.868069 2.05485 0.825087 1.83663 0.825087C1.61841 0.825087 1.40233 0.868069 1.20072 0.951577C0.999116 1.03509 0.815931 1.15748 0.661628 1.31179C0.507325 1.46609 0.384925 1.64928 0.301417 1.85088C0.217908 2.05249 0.174927 2.26857 0.174927 2.48679C0.174927 2.70501 0.217908 2.92109 0.301417 3.12269C0.384925 3.3243 0.507325 3.50748 0.661628 3.66179L8.31163 11.3118C8.46582 11.4663 8.64897 11.5889 8.85059 11.6725C9.05221 11.7561 9.26835 11.7992 9.48663 11.7992C9.70491 11.7992 9.92105 11.7561 10.1227 11.6725C10.3243 11.5889 10.5074 11.4663 10.6616 11.3118L18.3116 3.66179C18.9616 3.01179 18.9616 1.96179 18.3116 1.31179C17.6616 0.678454 16.595 0.661788 15.945 1.31179Z" fill="#12835E"/>
</svg>
