<svg width="11" height="14" viewBox="0 0 11 14" fill="none" xmlns="http://www.w3.org/2000/svg">
<path d="M1.57069 0.600001H1.57143H9.42857C9.69643 0.600001 9.9131 0.689881 10.1105 0.891081C10.3082 1.0926 10.4003 1.31832 10.4 1.60088V1.60159V13.1931C10.4 13.2945 10.3759 13.3243 10.3186 13.3616C10.2793 13.3873 10.2491 13.3999 10.2156 13.4001L5.92589 9.07736L5.5 8.6482L5.07411 9.07736L0.784788 13.3997C0.750827 13.3996 0.72019 13.3869 0.680571 13.3611C0.638796 13.334 0.625216 13.3132 0.61922 13.3018C0.612627 13.2893 0.6 13.2587 0.6 13.1931V1.60159C0.6 1.31804 0.692527 1.09183 0.890278 0.89028C1.08767 0.6891 1.30383 0.599671 1.57069 0.600001Z" fill="white" stroke="#12835E" stroke-width="1.2"/>
</svg>
