<svg width="52" height="52" viewBox="0 0 52 52" fill="none" xmlns="http://www.w3.org/2000/svg">
<path d="M23.0926 1.64279C23.9052 1.22122 24.8194 1 25.749 1C26.6785 1 27.5927 1.22122 28.4053 1.64279L48.9641 12.3097C49.3903 12.5311 49.7454 12.8549 49.9927 13.2476C50.2399 13.6403 50.3702 14.0876 50.3702 14.5432V35.5882C50.37 36.4997 50.1089 37.3945 49.6139 38.1799C49.1189 38.9653 48.4082 39.6128 47.5552 40.0553L28.4053 49.9965C27.5927 50.418 26.6785 50.6392 25.749 50.6392C24.8194 50.6392 23.9052 50.418 23.0926 49.9965L3.94272 40.0553C3.09015 39.6131 2.37963 38.9659 1.88469 38.181C1.38976 37.396 1.1284 36.5018 1.12769 35.5908V14.5432C1.12767 14.0876 1.25802 13.6403 1.50525 13.2476C1.75248 12.8549 2.1076 12.5311 2.53383 12.3097L23.0926 1.64279Z" stroke="#072F3B" stroke-width="2" stroke-linecap="round" stroke-linejoin="round"/>
<path d="M1.12769 13.0405L25.749 25.8183M25.749 25.8183L50.3702 13.0405M25.749 25.8183V50.0961" stroke="#072F3B" stroke-width="2" stroke-linejoin="round"/>
<path d="M13.4383 19.4295L38.0595 6.65173M9.33472 26.6566L17.5418 30.9295" stroke="#072F3B" stroke-width="2" stroke-linecap="round" stroke-linejoin="round"/>
</svg>
