<svg width="15" height="16" viewBox="0 0 15 16" fill="none" xmlns="http://www.w3.org/2000/svg">
<path d="M13.1631 5.0818L8.83006 1.48687C8.4498 1.17132 7.98178 1 7.5 1C7.01822 1 6.5502 1.17132 6.16994 1.48687L1.83606 5.0818C1.57561 5.29785 1.36489 5.57452 1.21999 5.8907C1.07509 6.20688 0.999844 6.5542 1 6.90613V13.1461C1 13.6058 1.17121 14.0467 1.47595 14.3718C1.7807 14.6968 2.19402 14.8795 2.625 14.8795H12.375C12.806 14.8795 13.2193 14.6968 13.524 14.3718C13.8288 14.0467 14 13.6058 14 13.1461V6.90613C14 6.19287 13.6913 5.51947 13.1631 5.0818Z" stroke="white" stroke-width="1.4" stroke-linecap="round" stroke-linejoin="round"/>
<path d="M10.7256 10.5331C8.92996 11.6884 6.01959 11.6884 4.22559 10.5331" stroke="white" stroke-width="1.4" stroke-linecap="round" stroke-linejoin="round"/>
</svg>
