<svg width="18" height="15" viewBox="0 0 18 15" fill="none" xmlns="http://www.w3.org/2000/svg">
<path d="M0.727273 3.16285e-05C0.534388 3.16285e-05 0.349403 0.0790492 0.213013 0.219701C0.0766231 0.360353 0 0.551118 0 0.75003C0 0.948942 0.0766231 1.13971 0.213013 1.28036C0.349403 1.42101 0.534388 1.50003 0.727273 1.50003H2.34182L4.25018 9.37501C4.41236 10.0425 4.992 10.5 5.65891 10.5H14.728C15.3847 10.5 15.9425 10.05 16.1149 9.39751L18 2.25003H16.4771L14.7273 9.00001H5.65818L3.75055 1.12503C3.67174 0.801952 3.49009 0.515489 3.23468 0.311516C2.97926 0.107543 2.66486 -0.0021397 2.34182 3.16285e-05H0.727273ZM13.8182 10.5C12.6218 10.5 11.6364 11.5163 11.6364 12.75C11.6364 13.9838 12.6218 15 13.8182 15C15.0145 15 16 13.9838 16 12.75C16 11.5163 15.0145 10.5 13.8182 10.5ZM7.27273 10.5C6.07636 10.5 5.09091 11.5163 5.09091 12.75C5.09091 13.9838 6.07636 15 7.27273 15C8.46909 15 9.45455 13.9838 9.45455 12.75C9.45455 11.5163 8.46909 10.5 7.27273 10.5ZM9.45455 3.16285e-05V3.75002H7.27273L10.1818 6.75002L13.0909 3.75002H10.9091V3.16285e-05H9.45455ZM7.27273 12C7.68291 12 8 12.327 8 12.75C8 13.173 7.68291 13.5 7.27273 13.5C6.86255 13.5 6.54545 13.173 6.54545 12.75C6.54545 12.327 6.86255 12 7.27273 12ZM13.8182 12C14.2284 12 14.5455 12.327 14.5455 12.75C14.5455 13.173 14.2284 13.5 13.8182 13.5C13.408 13.5 13.0909 13.173 13.0909 12.75C13.0909 12.327 13.408 12 13.8182 12Z" fill="white"/>
</svg>
