<svg width="24" height="24" viewBox="0 0 14 14" fill="none" xmlns="http://www.w3.org/2000/svg">
<mask id="path-1-inside-1_468_145" fill="white">
<path d="M11.2 11.2C10.423 11.2 9.8 11.823 9.8 12.6C9.8 12.9713 9.9475 13.3274 10.2101 13.5899C10.4726 13.8525 10.8287 14 11.2 14C11.5713 14 11.9274 13.8525 12.1899 13.5899C12.4525 13.3274 12.6 12.9713 12.6 12.6C12.6 12.2287 12.4525 11.8726 12.1899 11.6101C11.9274 11.3475 11.5713 11.2 11.2 11.2ZM0 0V1.4H1.4L3.92 6.713L2.968 8.428C2.863 8.624 2.8 8.855 2.8 9.1C2.8 9.4713 2.9475 9.8274 3.21005 10.0899C3.4726 10.3525 3.8287 10.5 4.2 10.5H12.6V9.1H4.494C4.44759 9.1 4.40308 9.08156 4.37026 9.04874C4.33744 9.01593 4.319 8.97141 4.319 8.925C4.319 8.89 4.326 8.862 4.34 8.841L4.97 7.7H10.185C10.71 7.7 11.172 7.406 11.41 6.979L13.916 2.45C13.965 2.338 14 2.219 14 2.1C14 1.91435 13.9263 1.7363 13.795 1.60503C13.6637 1.47375 13.4857 1.4 13.3 1.4H2.947L2.289 0M4.2 11.2C3.423 11.2 2.8 11.823 2.8 12.6C2.8 12.9713 2.9475 13.3274 3.21005 13.5899C3.4726 13.8525 3.8287 14 4.2 14C4.5713 14 4.9274 13.8525 5.18995 13.5899C5.4525 13.3274 5.6 12.9713 5.6 12.6C5.6 12.2287 5.4525 11.8726 5.18995 11.6101C4.9274 11.3475 4.5713 11.2 4.2 11.2Z"/>
</mask>
<path d="M11.2 11.2C10.423 11.2 9.8 11.823 9.8 12.6C9.8 12.9713 9.9475 13.3274 10.2101 13.5899C10.4726 13.8525 10.8287 14 11.2 14C11.5713 14 11.9274 13.8525 12.1899 13.5899C12.4525 13.3274 12.6 12.9713 12.6 12.6C12.6 12.2287 12.4525 11.8726 12.1899 11.6101C11.9274 11.3475 11.5713 11.2 11.2 11.2ZM0 0V1.4H1.4L3.92 6.713L2.968 8.428C2.863 8.624 2.8 8.855 2.8 9.1C2.8 9.4713 2.9475 9.8274 3.21005 10.0899C3.4726 10.3525 3.8287 10.5 4.2 10.5H12.6V9.1H4.494C4.44759 9.1 4.40308 9.08156 4.37026 9.04874C4.33744 9.01593 4.319 8.97141 4.319 8.925C4.319 8.89 4.326 8.862 4.34 8.841L4.97 7.7H10.185C10.71 7.7 11.172 7.406 11.41 6.979L13.916 2.45C13.965 2.338 14 2.219 14 2.1C14 1.91435 13.9263 1.7363 13.795 1.60503C13.6637 1.47375 13.4857 1.4 13.3 1.4H2.947L2.289 0M4.2 11.2C3.423 11.2 2.8 11.823 2.8 12.6C2.8 12.9713 2.9475 13.3274 3.21005 13.5899C3.4726 13.8525 3.8287 14 4.2 14C4.5713 14 4.9274 13.8525 5.18995 13.5899C5.4525 13.3274 5.6 12.9713 5.6 12.6C5.6 12.2287 5.4525 11.8726 5.18995 11.6101C4.9274 11.3475 4.5713 11.2 4.2 11.2Z" fill="white"/>
<path d="M0 1.4H-1V2.4H0V1.4ZM1.4 1.4L2.30352 0.971453L2.03247 0.4H1.4V1.4ZM3.92 6.713L4.79433 7.19834L5.04381 6.7489L4.82352 6.28445L3.92 6.713ZM2.968 8.428L2.09367 7.94266L2.09005 7.94919L2.08652 7.95578L2.968 8.428ZM12.6 10.5V11.5H13.6V10.5H12.6ZM12.6 9.1H13.6V8.1H12.6V9.1ZM4.34 8.841L5.17205 9.3957L5.19523 9.36094L5.21542 9.32436L4.34 8.841ZM4.97 7.7V6.7H4.37984L4.09458 7.21664L4.97 7.7ZM11.41 6.979L12.2835 7.46586L12.285 7.46315L11.41 6.979ZM13.916 2.45L14.791 2.93415L14.8135 2.89344L14.8322 2.85082L13.916 2.45ZM2.947 1.4L2.04198 1.82536L2.31206 2.4H2.947V1.4ZM2.8 12.6L1.8 12.6L2.8 12.6ZM11.2 10.2C9.87072 10.2 8.8 11.2707 8.8 12.6H10.8C10.8 12.3753 10.9753 12.2 11.2 12.2V10.2ZM8.8 12.6C8.8 13.2365 9.05286 13.847 9.50294 14.2971L10.9172 12.8828C10.8421 12.8078 10.8 12.7061 10.8 12.6H8.8ZM9.50294 14.2971C9.95303 14.7471 10.5635 15 11.2 15V13C11.0939 13 10.9922 12.9579 10.9172 12.8828L9.50294 14.2971ZM11.2 15C11.8365 15 12.447 14.7471 12.8971 14.2971L11.4828 12.8828C11.4078 12.9579 11.3061 13 11.2 13V15ZM12.8971 14.2971C13.3471 13.847 13.6 13.2365 13.6 12.6H11.6C11.6 12.7061 11.5579 12.8078 11.4828 12.8828L12.8971 14.2971ZM13.6 12.6C13.6 11.9635 13.3471 11.353 12.8971 10.9029L11.4828 12.3172C11.5579 12.3922 11.6 12.4939 11.6 12.6H13.6ZM12.8971 10.9029C12.447 10.4529 11.8365 10.2 11.2 10.2V12.2C11.3061 12.2 11.4078 12.2421 11.4828 12.3172L12.8971 10.9029ZM-1 0V1.4H1V0H-1ZM0 2.4H1.4V0.4H0V2.4ZM0.49648 1.82855L3.01648 7.14155L4.82352 6.28445L2.30352 0.971453L0.49648 1.82855ZM3.04567 6.22766L2.09367 7.94266L3.84233 8.91334L4.79433 7.19834L3.04567 6.22766ZM2.08652 7.95578C1.90669 8.29147 1.8 8.68405 1.8 9.1H3.8C3.8 9.02595 3.81931 8.95653 3.84948 8.90022L2.08652 7.95578ZM1.8 9.1C1.8 9.73652 2.05286 10.347 2.50294 10.7971L3.91716 9.38284C3.84214 9.30783 3.8 9.20609 3.8 9.1H1.8ZM2.50294 10.7971C2.95303 11.2471 3.56348 11.5 4.2 11.5V9.5C4.09391 9.5 3.99217 9.45786 3.91716 9.38284L2.50294 10.7971ZM4.2 11.5H12.6V9.5H4.2V11.5ZM13.6 10.5V9.1H11.6V10.5H13.6ZM12.6 8.1H4.494V10.1H12.6V8.1ZM4.494 8.1C4.7128 8.1 4.92264 8.18692 5.07736 8.34164L3.66315 9.75585C3.88351 9.97621 4.18238 10.1 4.494 10.1V8.1ZM5.07736 8.34164C5.23208 8.49636 5.319 8.7062 5.319 8.925H3.319C3.319 9.23663 3.44279 9.5355 3.66315 9.75585L5.07736 8.34164ZM5.319 8.925C5.319 9.01363 5.30236 9.20023 5.17205 9.3957L3.50795 8.2863C3.34964 8.52377 3.319 8.76637 3.319 8.925H5.319ZM5.21542 9.32436L5.84542 8.18336L4.09458 7.21664L3.46458 8.35764L5.21542 9.32436ZM4.97 8.7H10.185V6.7H4.97V8.7ZM10.185 8.7C11.0887 8.7 11.8769 8.19535 12.2835 7.46586L10.5365 6.49214C10.4671 6.61665 10.3313 6.7 10.185 6.7V8.7ZM12.285 7.46315L14.791 2.93415L13.041 1.96585L10.535 6.49485L12.285 7.46315ZM14.8322 2.85082C14.911 2.67051 15 2.40872 15 2.1H13C13 2.06189 13.0055 2.03785 13.0071 2.03169C13.0086 2.02578 13.0078 2.03103 12.9998 2.04918L14.8322 2.85082ZM15 2.1C15 1.64913 14.8209 1.21673 14.5021 0.897919L13.0879 2.31213C13.0316 2.25587 13 2.17957 13 2.1H15ZM14.5021 0.897919C14.1833 0.579107 13.7509 0.4 13.3 0.4V2.4C13.2204 2.4 13.1441 2.36839 13.0879 2.31213L14.5021 0.897919ZM13.3 0.4H2.947V2.4H13.3V0.4ZM3.85202 0.974639L3.19402 -0.425361L1.38398 0.425361L2.04198 1.82536L3.85202 0.974639ZM4.2 10.2C2.87072 10.2 1.8 11.2707 1.8 12.6H3.8C3.8 12.3753 3.97529 12.2 4.2 12.2V10.2ZM1.8 12.6C1.8 13.2365 2.05286 13.847 2.50294 14.2971L3.91716 12.8828C3.84214 12.8078 3.8 12.7061 3.8 12.6L1.8 12.6ZM2.50294 14.2971C2.95303 14.7471 3.56348 15 4.2 15V13C4.09391 13 3.99217 12.9579 3.91716 12.8828L2.50294 14.2971ZM4.2 15C4.83652 15 5.44697 14.7471 5.89706 14.2971L4.48284 12.8828C4.40783 12.9579 4.30609 13 4.2 13V15ZM5.89706 14.2971C6.34714 13.847 6.6 13.2365 6.6 12.6H4.6C4.6 12.7061 4.55786 12.8078 4.48284 12.8828L5.89706 14.2971ZM6.6 12.6C6.6 11.9635 6.34714 11.353 5.89706 10.9029L4.48284 12.3172C4.55786 12.3922 4.6 12.4939 4.6 12.6H6.6ZM5.89706 10.9029C5.44697 10.4529 4.83652 10.2 4.2 10.2V12.2C4.30609 12.2 4.40783 12.2421 4.48284 12.3172L5.89706 10.9029Z" fill="#12835E" mask="url(#path-1-inside-1_468_145)"/>
</svg>
