<svg width="12" height="15" viewBox="0 0 12 15" fill="none" xmlns="http://www.w3.org/2000/svg">
<path d="M6 0L0 2.72727V6.81818C0 10.6023 2.56 14.1409 6 15C9.44 14.1409 12 10.6023 12 6.81818V2.72727L6 0ZM6 2.65909C6.39556 2.65909 6.78224 2.77905 7.11114 3.00381C7.44004 3.22857 7.69638 3.54803 7.84776 3.92178C7.99913 4.29554 8.03874 4.70681 7.96157 5.10359C7.8844 5.50037 7.69392 5.86484 7.41421 6.1509C7.13451 6.43696 6.77814 6.63177 6.39018 6.7107C6.00222 6.78962 5.60009 6.74911 5.23463 6.5943C4.86918 6.43948 4.55682 6.17731 4.33706 5.84094C4.1173 5.50457 4 5.1091 4 4.70455C4 4.16206 4.21071 3.64179 4.58579 3.25819C4.96086 2.87459 5.46957 2.65909 6 2.65909ZM6 8.04545C7.33333 8.04545 10 8.78864 10 10.1455C9.56215 10.8205 8.96776 11.3743 8.26982 11.7574C7.57188 12.1405 6.7921 12.3409 6 12.3409C5.2079 12.3409 4.42812 12.1405 3.73018 11.7574C3.03224 11.3743 2.43785 10.8205 2 10.1455C2 8.78864 4.66667 8.04545 6 8.04545Z" fill="#12835E"/>
</svg>
