<svg width="12" height="14" viewBox="0 0 12 14" fill="none" xmlns="http://www.w3.org/2000/svg">
<path d="M2.25 14C1.8375 14 1.48425 13.8476 1.19025 13.5427C0.896252 13.2378 0.749502 12.8717 0.750002 12.4444V2.33334C0.537502 2.33334 0.359253 2.25867 0.215253 2.10934C0.0712527 1.96 -0.000497405 1.77541 2.59515e-06 1.55556C2.59515e-06 1.33519 0.0720026 1.15034 0.216003 1.001C0.360003 0.851669 0.538002 0.777262 0.750002 0.77778H3.75C3.75 0.55741 3.822 0.372558 3.966 0.223225C4.11 0.0738915 4.288 -0.000515827 4.5 2.69127e-06H7.5C7.7125 2.69127e-06 7.89075 0.0746694 8.03475 0.224003C8.17875 0.373336 8.2505 0.557928 8.25 0.77778H11.25C11.4625 0.77778 11.6407 0.852447 11.7847 1.00178C11.9287 1.15111 12.0005 1.33571 12 1.55556C12 1.77593 11.928 1.96078 11.784 2.11011C11.64 2.25945 11.462 2.33385 11.25 2.33334V12.4444C11.25 12.8722 11.103 13.2386 10.809 13.5434C10.515 13.8483 10.162 14.0005 9.75 14H2.25ZM3.75 10.1111C3.75 10.3315 3.822 10.5163 3.966 10.6657C4.11 10.815 4.288 10.8894 4.5 10.8889C4.7125 10.8889 4.89075 10.8142 5.03475 10.6649C5.17875 10.5156 5.2505 10.331 5.25 10.1111V4.66667C5.25 4.4463 5.178 4.26145 5.034 4.11211C4.89 3.96278 4.712 3.88837 4.5 3.88889C4.2875 3.88889 4.10925 3.96356 3.96525 4.11289C3.82125 4.26222 3.7495 4.44682 3.75 4.66667V10.1111ZM6.75 10.1111C6.75 10.3315 6.822 10.5163 6.966 10.6657C7.11 10.815 7.288 10.8894 7.5 10.8889C7.7125 10.8889 7.89075 10.8142 8.03475 10.6649C8.17875 10.5156 8.2505 10.331 8.25 10.1111V4.66667C8.25 4.4463 8.178 4.26145 8.034 4.11211C7.89 3.96278 7.712 3.88837 7.5 3.88889C7.2875 3.88889 7.10925 3.96356 6.96525 4.11289C6.82125 4.26222 6.7495 4.44682 6.75 4.66667V10.1111Z" fill="#12835E"/>
</svg>
