<svg width="17" height="14" viewBox="0 0 17 14" fill="none" xmlns="http://www.w3.org/2000/svg">
<path d="M1.7 14C1.2325 14 0.832433 13.8288 0.4998 13.4864C0.1666 13.1434 0 12.7312 0 12.25V1.75C0 1.26875 0.1666 0.856917 0.4998 0.5145C0.832433 0.1715 1.2325 0 1.7 0H15.3C15.7675 0 16.1679 0.1715 16.5011 0.5145C16.8337 0.856917 17 1.26875 17 1.75V12.25C17 12.7312 16.8337 13.1434 16.5011 13.4864C16.1679 13.8288 15.7675 14 15.3 14H1.7ZM8.5 7.875L1.7 3.5V12.25H15.3V3.5L8.5 7.875ZM8.5 6.125L15.3 1.75H1.7L8.5 6.125ZM1.7 3.5V1.75V12.25V3.5Z" fill="#072F3B"/>
</svg>
