<svg width="28" height="27" viewBox="0 0 28 27" fill="none" xmlns="http://www.w3.org/2000/svg">
<path d="M14 27L11.97 25.0872C9.61333 22.8556 7.665 20.9305 6.125 19.312C4.585 17.6935 3.36 16.2402 2.45 14.9523C1.54 13.6653 0.9044 12.4823 0.5432 11.4033C0.182 10.3242 0.000933333 9.22071 0 8.09264C0 5.78747 0.735 3.8624 2.205 2.31744C3.675 0.772479 5.50667 0 7.7 0C8.91333 0 10.0683 0.269755 11.165 0.809264C12.2617 1.34877 13.2067 2.10899 14 3.08992C14.7933 2.10899 15.7383 1.34877 16.835 0.809264C17.9317 0.269755 19.0867 0 20.3 0C22.4933 0 24.325 0.772479 25.795 2.31744C27.265 3.8624 28 5.78747 28 8.09264C28 9.22071 27.8189 10.3242 27.4568 11.4033C27.0947 12.4823 26.4591 13.6653 25.55 14.9523C24.64 16.2402 23.415 17.6935 21.875 19.312C20.335 20.9305 18.3867 22.8556 16.03 25.0872L14 27Z" fill="#12835E"/>
</svg>
