<svg width="15" height="14" viewBox="0 0 15 14" fill="none" xmlns="http://www.w3.org/2000/svg">
<path d="M6.4875 13.565L5.19375 12.3192C3.86875 11.0405 2.67175 9.77152 1.60275 8.51232C0.53375 7.25311 -0.000499649 5.86576 3.50631e-07 4.35028C3.50631e-07 3.11111 0.39375 2.07627 1.18125 1.24576C1.96875 0.415255 2.95 1.40241e-06 4.125 1.40241e-06C4.7875 1.40241e-06 5.4125 0.148174 6 0.444521C6.5875 0.740867 7.0875 1.14637 7.5 1.66102C7.9125 1.14689 8.4125 0.741395 9 0.444521C9.5875 0.147647 10.2125 -0.000525904 10.875 1.40241e-06C12.05 1.40241e-06 13.0312 0.415255 13.8187 1.24576C14.6062 2.07627 15 3.11111 15 4.35028C15 5.86629 14.4687 7.25706 13.4062 8.5226C12.3438 9.78814 11.1375 11.0603 9.7875 12.339L8.5125 13.565C8.225 13.855 7.8875 14 7.5 14C7.1125 14 6.775 13.855 6.4875 13.565ZM6.7875 3.24294C6.425 2.70245 6.0375 2.29036 5.625 2.00667C5.2125 1.72298 4.7125 1.58139 4.125 1.58192C3.375 1.58192 2.75 1.84558 2.25 2.37288C1.75 2.90019 1.5 3.55932 1.5 4.35028C1.5 5.03578 1.73125 5.76426 2.19375 6.53571C2.65625 7.30716 3.2095 8.05514 3.8535 8.77966C4.497 9.50471 5.1595 10.1836 5.841 10.8164C6.5225 11.4492 7.0755 11.9699 7.5 12.3785C7.925 11.9699 8.47825 11.4492 9.15975 10.8164C9.84125 10.1836 10.5038 9.50471 11.1473 8.77966C11.7908 8.05461 12.3438 7.30663 12.8063 6.53571C13.2688 5.76478 13.5 5.03631 13.5 4.35028C13.5 3.55932 13.25 2.90019 12.75 2.37288C12.25 1.84558 11.625 1.58192 10.875 1.58192C10.2875 1.58192 9.7875 1.7235 9.375 2.00667C8.9625 2.28983 8.575 2.70192 8.2125 3.24294C8.125 3.37477 8.01875 3.47364 7.89375 3.53955C7.76875 3.60546 7.6375 3.63842 7.5 3.63842C7.3625 3.63842 7.23125 3.60546 7.10625 3.53955C6.98125 3.47364 6.875 3.37477 6.7875 3.24294Z" fill="#12835E"/>
</svg>
