<svg width="12" height="14" viewBox="0 0 12 14" fill="none" xmlns="http://www.w3.org/2000/svg">
<path d="M3.75 1.50184C3.55109 1.50184 3.36032 1.58086 3.21967 1.72151C3.07902 1.86216 3 2.05293 3 2.25184C3 2.45075 3.07902 2.64152 3.21967 2.78217C3.36032 2.92282 3.55109 3.00184 3.75 3.00184C3.94891 3.00184 4.13968 2.92282 4.28033 2.78217C4.42098 2.64152 4.5 2.45075 4.5 2.25184C4.5 2.05293 4.42098 1.86216 4.28033 1.72151C4.13968 1.58086 3.94891 1.50184 3.75 1.50184ZM1.6275 1.50184C1.78245 1.06269 2.0698 0.682413 2.44995 0.41343C2.8301 0.144447 3.28432 0 3.75 0C4.21568 0 4.6699 0.144447 5.05005 0.41343C5.4302 0.682413 5.71755 1.06269 5.8725 1.50184H11.25C11.4489 1.50184 11.6397 1.58086 11.7803 1.72151C11.921 1.86216 12 2.05293 12 2.25184C12 2.45075 11.921 2.64152 11.7803 2.78217C11.6397 2.92282 11.4489 3.00184 11.25 3.00184H5.8725C5.71755 3.44099 5.4302 3.82126 5.05005 4.09025C4.6699 4.35923 4.21568 4.50368 3.75 4.50368C3.28432 4.50368 2.8301 4.35923 2.44995 4.09025C2.0698 3.82126 1.78245 3.44099 1.6275 3.00184H0.75C0.551088 3.00184 0.360322 2.92282 0.21967 2.78217C0.0790178 2.64152 0 2.45075 0 2.25184C0 2.05293 0.0790178 1.86216 0.21967 1.72151C0.360322 1.58086 0.551088 1.50184 0.75 1.50184H1.6275ZM8.25 6.00184C8.05109 6.00184 7.86032 6.08086 7.71967 6.22151C7.57902 6.36216 7.5 6.55293 7.5 6.75184C7.5 6.95075 7.57902 7.14151 7.71967 7.28217C7.86032 7.42282 8.05109 7.50184 8.25 7.50184C8.44891 7.50184 8.63968 7.42282 8.78033 7.28217C8.92098 7.14151 9 6.95075 9 6.75184C9 6.55293 8.92098 6.36216 8.78033 6.22151C8.63968 6.08086 8.44891 6.00184 8.25 6.00184ZM6.1275 6.00184C6.28245 5.56269 6.5698 5.18241 6.94995 4.91343C7.3301 4.64445 7.78432 4.5 8.25 4.5C8.71569 4.5 9.1699 4.64445 9.55005 4.91343C9.9302 5.18241 10.2175 5.56269 10.3725 6.00184H11.25C11.4489 6.00184 11.6397 6.08086 11.7803 6.22151C11.921 6.36216 12 6.55293 12 6.75184C12 6.95075 11.921 7.14151 11.7803 7.28217C11.6397 7.42282 11.4489 7.50184 11.25 7.50184H10.3725C10.2175 7.94099 9.9302 8.32126 9.55005 8.59025C9.1699 8.85923 8.71569 9.00368 8.25 9.00368C7.78432 9.00368 7.3301 8.85923 6.94995 8.59025C6.5698 8.32126 6.28245 7.94099 6.1275 7.50184H0.75C0.551088 7.50184 0.360322 7.42282 0.21967 7.28217C0.0790178 7.14151 0 6.95075 0 6.75184C0 6.55293 0.0790178 6.36216 0.21967 6.22151C0.360322 6.08086 0.551088 6.00184 0.75 6.00184H6.1275ZM3.75 10.5018C3.55109 10.5018 3.36032 10.5809 3.21967 10.7215C3.07902 10.8622 3 11.0529 3 11.2518C3 11.4508 3.07902 11.6415 3.21967 11.7822C3.36032 11.9228 3.55109 12.0018 3.75 12.0018C3.94891 12.0018 4.13968 11.9228 4.28033 11.7822C4.42098 11.6415 4.5 11.4508 4.5 11.2518C4.5 11.0529 4.42098 10.8622 4.28033 10.7215C4.13968 10.5809 3.94891 10.5018 3.75 10.5018ZM1.6275 10.5018C1.78245 10.0627 2.0698 9.68241 2.44995 9.41343C2.8301 9.14445 3.28432 9 3.75 9C4.21568 9 4.6699 9.14445 5.05005 9.41343C5.4302 9.68241 5.71755 10.0627 5.8725 10.5018H11.25C11.4489 10.5018 11.6397 10.5809 11.7803 10.7215C11.921 10.8622 12 11.0529 12 11.2518C12 11.4508 11.921 11.6415 11.7803 11.7822C11.6397 11.9228 11.4489 12.0018 11.25 12.0018H5.8725C5.71755 12.441 5.4302 12.8213 5.05005 13.0902C4.6699 13.3592 4.21568 13.5037 3.75 13.5037C3.28432 13.5037 2.8301 13.3592 2.44995 13.0902C2.0698 12.8213 1.78245 12.441 1.6275 12.0018H0.75C0.551088 12.0018 0.360322 11.9228 0.21967 11.7822C0.0790178 11.6415 0 11.4508 0 11.2518C0 11.0529 0.0790178 10.8622 0.21967 10.7215C0.360322 10.5809 0.551088 10.5018 0.75 10.5018H1.6275Z" fill="#2D2D2D"/>
</svg>
