<svg width="14" height="15" viewBox="0 0 14 15" fill="none" xmlns="http://www.w3.org/2000/svg">
<path d="M13.9999 7.30155C13.9999 6.71426 13.9523 6.28568 13.8492 5.84125H7.14282V8.492H11.0793C11 9.15075 10.5714 10.1428 9.61899 10.8094L9.60564 10.8982L11.7261 12.5409L11.873 12.5555C13.2221 11.3095 13.9999 9.47613 13.9999 7.30155Z" fill="#4285F4"/>
<path d="M7.14292 14.2857C9.07146 14.2857 10.6905 13.6507 11.8731 12.5555L9.61908 10.8095C9.01592 11.2301 8.20638 11.5237 7.14292 11.5237C5.25405 11.5237 3.65089 10.2778 3.0794 8.55554L2.99564 8.56266L0.790797 10.269L0.761963 10.3492C1.93655 12.6825 4.34925 14.2857 7.14292 14.2857Z" fill="#34A853"/>
<path d="M3.07933 8.55555C2.92854 8.11111 2.84127 7.63489 2.84127 7.14285C2.84127 6.65076 2.92854 6.17458 3.07139 5.73015L3.0674 5.63549L0.834927 3.90173L0.761885 3.93648C0.27778 4.90474 0 5.99206 0 7.14285C0 8.29364 0.27778 9.3809 0.761885 10.3492L3.07933 8.55555Z" fill="#FBBC05"/>
<path d="M7.14292 2.76188C8.48416 2.76188 9.3889 3.34124 9.9048 3.8254L11.9207 1.85714C10.6826 0.70635 9.07146 0 7.14292 0C4.34925 0 1.93655 1.60316 0.761963 3.93647L3.07147 5.73014C3.65089 4.00792 5.25405 2.76188 7.14292 2.76188Z" fill="#EB4335"/>
</svg>
