<svg width="31" height="31" viewBox="0 0 31 31" fill="none" xmlns="http://www.w3.org/2000/svg">
<path d="M26.95 9.84962L18.0617 2.93628C17.2816 2.32946 16.3216 2 15.3333 2C14.3451 2 13.385 2.32946 12.605 2.93628L3.715 9.84962C3.18074 10.2651 2.74849 10.7972 2.45126 11.4052C2.15403 12.0132 1.99968 12.6812 2 13.3579V25.3579C2 26.242 2.35119 27.0899 2.97631 27.715C3.60143 28.3401 4.44928 28.6913 5.33333 28.6913H25.3333C26.2174 28.6913 27.0652 28.3401 27.6904 27.715C28.3155 27.0899 28.6667 26.242 28.6667 25.3579V13.3579C28.6667 11.9863 28.0333 10.6913 26.95 9.84962Z" fill="white" stroke="white" stroke-width="3.33333" stroke-linecap="round" stroke-linejoin="round"/>
<path d="M21.95 20.3329C18.2667 22.5546 12.2967 22.5546 8.6167 20.3329Z" fill="white"/>
<path d="M21.95 20.3329C18.2667 22.5546 12.2967 22.5546 8.6167 20.3329" stroke="white" stroke-width="3.33333" stroke-linecap="round" stroke-linejoin="round"/>
</svg>
