<svg width="34" height="32" viewBox="0 0 34 32" fill="none" xmlns="http://www.w3.org/2000/svg">
<path d="M17.9767 1.64948L17.9768 1.64953L31.9498 12.5177C31.9499 12.5177 31.9499 12.5177 31.95 12.5178C31.95 12.5178 31.9501 12.5178 31.9501 12.5179C32.3002 12.7906 32.1098 13.3556 31.6618 13.3556H30.0002H28.8002V14.5556V27.889C28.8002 28.4548 28.5754 28.9974 28.1753 29.3975C27.7753 29.7976 27.2326 30.0223 26.6668 30.0223H21.2002V21.2223C21.2002 20.02 20.7226 18.8669 19.8724 18.0168C19.0222 17.1666 17.8692 16.689 16.6668 16.689C15.4645 16.689 14.3115 17.1666 13.4613 18.0168C12.6111 18.8669 12.1335 20.02 12.1335 21.2223V30.0223H6.66684C6.10104 30.0223 5.55842 29.7976 5.15834 29.3975C4.75827 28.9974 4.53351 28.4548 4.53351 27.889V14.5556V13.3556H3.33351H1.67184C1.22855 13.3556 1.02939 12.7935 1.38462 12.5154C1.38482 12.5152 1.38502 12.5151 1.38522 12.5149L15.3568 1.64958L15.357 1.64948C15.7315 1.35816 16.1924 1.2 16.6668 1.2C17.1413 1.2 17.6022 1.35816 17.9767 1.64948Z" fill="white" stroke="#12835E" stroke-width="2.4"/>
</svg>
