<svg width="14" height="14" viewBox="0 0 14 14" fill="none" xmlns="http://www.w3.org/2000/svg">
<g clip-path="url(#clip0_373_90)">
<path d="M13.4873 5.29017L9.06268 0.865005C8.51507 0.318999 7.77331 0.0123901 7.00001 0.0123901C6.22671 0.0123901 5.48495 0.318999 4.93734 0.865005L0.512757 5.29017C0.349672 5.45221 0.220373 5.64501 0.132355 5.8574C0.0443376 6.06978 -0.000647734 6.29752 7.04637e-06 6.52742V12.254C7.04637e-06 12.7181 0.184382 13.1633 0.51257 13.4914C0.840759 13.8196 1.28588 14.004 1.75001 14.004H12.25C12.7141 14.004 13.1593 13.8196 13.4874 13.4914C13.8156 13.1633 14 12.7181 14 12.254V6.52742C14.0007 6.29752 13.9557 6.06978 13.8677 5.8574C13.7796 5.64501 13.6503 5.45221 13.4873 5.29017V5.29017ZM8.75001 12.8373H5.25001V10.5425C5.25001 10.0784 5.43438 9.63326 5.76257 9.30507C6.09076 8.97688 6.53588 8.79251 7.00001 8.79251C7.46414 8.79251 7.90926 8.97688 8.23745 9.30507C8.56563 9.63326 8.75001 10.0784 8.75001 10.5425V12.8373ZM12.8333 12.254C12.8333 12.4087 12.7719 12.5571 12.6625 12.6665C12.5531 12.7759 12.4047 12.8373 12.25 12.8373H9.91668V10.5425C9.91668 9.76896 9.60938 9.02709 9.0624 8.48011C8.51542 7.93313 7.77356 7.62584 7.00001 7.62584C6.22646 7.62584 5.48459 7.93313 4.93761 8.48011C4.39063 9.02709 4.08334 9.76896 4.08334 10.5425V12.8373H1.75001C1.5953 12.8373 1.44692 12.7759 1.33753 12.6665C1.22813 12.5571 1.16667 12.4087 1.16667 12.254V6.52742C1.16721 6.37283 1.22862 6.22466 1.33759 6.11501L5.76218 1.69159C6.091 1.3643 6.53606 1.18056 7.00001 1.18056C7.46395 1.18056 7.90902 1.3643 8.23784 1.69159L12.6624 6.11676C12.771 6.22598 12.8323 6.37343 12.8333 6.52742V12.254Z" fill="#12835E"/>
</g>
<defs>
<clipPath id="clip0_373_90">
<rect width="14" height="14" fill="white"/>
</clipPath>
</defs>
</svg>
