<svg width="40" height="40" viewBox="0 0 40 40" fill="none" xmlns="http://www.w3.org/2000/svg">
<rect width="40" height="40" rx="10" fill="#12835E"/>
<path d="M37 20C37 29.3888 29.3888 37 20 37C10.6112 37 3 29.3888 3 20C3 10.6112 10.6112 3 20 3C29.3888 3 37 10.6112 37 20ZM4.62584 20C4.62584 28.4909 11.5091 35.3742 20 35.3742C28.4909 35.3742 35.3742 28.4909 35.3742 20C35.3742 11.5091 28.4909 4.62584 20 4.62584C11.5091 4.62584 4.62584 11.5091 4.62584 20Z" fill="white"/>
<line x1="20.2092" y1="4.58139" x2="20.2092" y2="36.4564" stroke="white" stroke-width="2"/>
<path d="M14.645 4.955C19.3868 24.3518 23.7607 13.037 25.355 4.955" stroke="white" stroke-width="2"/>
<path d="M11.245 6.22998C19.1103 23.7795 26.3655 13.5423 29.01 6.22998" stroke="white" stroke-width="2"/>
<path d="M8.35498 8.86501C18.6288 22.1041 28.1057 14.3813 31.56 8.86501" stroke="white" stroke-width="2"/>
<path d="M5.80493 11.84C18.3743 20.6148 29.9688 15.4961 34.1949 11.84" stroke="white" stroke-width="2"/>
<path d="M19.5792 36.0861C18.191 24.5545 9.42131 24.5056 5.20998 25.9226" stroke="white" stroke-width="2"/>
<path d="M35.4307 25.6009C23.6032 23.6636 20.4331 32.2831 20.3264 36.8349" stroke="white" stroke-width="2"/>
</svg>
