<svg width="26" height="25" viewBox="0 0 26 25" fill="none" xmlns="http://www.w3.org/2000/svg">
<path d="M7.75 0H18.25C22.25 0 25.5 3.25 25.5 7.25V17.75C25.5 19.6728 24.7362 21.5169 23.3765 22.8765C22.0169 24.2362 20.1728 25 18.25 25H7.75C3.75 25 0.5 21.75 0.5 17.75V7.25C0.5 5.32718 1.26384 3.48311 2.62348 2.12348C3.98311 0.763837 5.82718 0 7.75 0ZM7.5 2.5C6.30653 2.5 5.16193 2.97411 4.31802 3.81802C3.47411 4.66193 3 5.80653 3 7V18C3 20.4875 5.0125 22.5 7.5 22.5H18.5C19.6935 22.5 20.8381 22.0259 21.682 21.182C22.5259 20.3381 23 19.1935 23 18V7C23 4.5125 20.9875 2.5 18.5 2.5H7.5ZM19.5625 4.375C19.9769 4.375 20.3743 4.53962 20.6674 4.83265C20.9604 5.12567 21.125 5.5231 21.125 5.9375C21.125 6.3519 20.9604 6.74933 20.6674 7.04235C20.3743 7.33538 19.9769 7.5 19.5625 7.5C19.1481 7.5 18.7507 7.33538 18.4576 7.04235C18.1646 6.74933 18 6.3519 18 5.9375C18 5.5231 18.1646 5.12567 18.4576 4.83265C18.7507 4.53962 19.1481 4.375 19.5625 4.375ZM13 6.25C14.6576 6.25 16.2473 6.90848 17.4194 8.08058C18.5915 9.25268 19.25 10.8424 19.25 12.5C19.25 14.1576 18.5915 15.7473 17.4194 16.9194C16.2473 18.0915 14.6576 18.75 13 18.75C11.3424 18.75 9.75268 18.0915 8.58058 16.9194C7.40848 15.7473 6.75 14.1576 6.75 12.5C6.75 10.8424 7.40848 9.25268 8.58058 8.08058C9.75268 6.90848 11.3424 6.25 13 6.25ZM13 8.75C12.0054 8.75 11.0516 9.14509 10.3483 9.84835C9.64509 10.5516 9.25 11.5054 9.25 12.5C9.25 13.4946 9.64509 14.4484 10.3483 15.1517C11.0516 15.8549 12.0054 16.25 13 16.25C13.9946 16.25 14.9484 15.8549 15.6517 15.1517C16.3549 14.4484 16.75 13.4946 16.75 12.5C16.75 11.5054 16.3549 10.5516 15.6517 9.84835C14.9484 9.14509 13.9946 8.75 13 8.75Z" fill="#072F3B"/>
</svg>
