<svg width="14" height="14" viewBox="0 0 14 14" fill="none" xmlns="http://www.w3.org/2000/svg">
<path d="M6.17978 13.7235L0.247205 7.63949C0.157317 7.54731 0.0934969 7.44745 0.0557441 7.3399C0.0179914 7.23236 -0.000585205 7.11713 1.40451e-05 6.99422C1.40451e-05 6.87131 0.0188906 6.75609 0.0566434 6.64854C0.0943961 6.541 0.157917 6.44113 0.247205 6.34895L6.17978 0.264987C6.34458 0.0959878 6.55072 0.00780132 6.79821 0.000426821C7.0457 -0.00694768 7.25903 0.0812388 7.43821 0.264987C7.61798 0.433986 7.71176 0.645388 7.71955 0.899194C7.72734 1.153 7.64105 1.37178 7.46068 1.55552L3.05619 6.07241H13.1011C13.3558 6.07241 13.5694 6.1609 13.742 6.33789C13.9146 6.51488 14.0006 6.73366 14 6.99422C14 7.2554 13.914 7.47449 13.742 7.65147C13.57 7.82846 13.3564 7.91665 13.1011 7.91603H3.05619L7.46068 12.4329C7.62547 12.6019 7.71176 12.817 7.71955 13.0782C7.72734 13.3394 7.64105 13.5545 7.46068 13.7235C7.29588 13.9078 7.08615 14 6.83147 14C6.57678 14 6.35956 13.9078 6.17978 13.7235Z" fill="#12835E"/>
</svg>
