<svg width="12" height="15" viewBox="0 0 12 15" fill="none" xmlns="http://www.w3.org/2000/svg">
<path d="M10.2 4.9842V4.14167C10.2 3.04323 9.7575 1.98978 8.96985 1.21307C8.1822 0.436353 7.11391 0 6 0C4.88609 0 3.8178 0.436353 3.03015 1.21307C2.2425 1.98978 1.8 3.04323 1.8 4.14167V4.9842C1.26562 5.21418 0.810776 5.59274 0.491099 6.07358C0.171423 6.55442 0.000767025 7.11671 0 7.69167V11.2417C0.000952715 12.026 0.317329 12.7779 0.879732 13.3325C1.44213 13.8871 2.20464 14.1991 3 14.2H9C9.79536 14.1991 10.5579 13.8871 11.1203 13.3325C11.6827 12.7779 11.999 12.026 12 11.2417V7.69167C11.9992 7.11671 11.8286 6.55442 11.5089 6.07358C11.1892 5.59274 10.7344 5.21418 10.2 4.9842ZM3 4.14167C3 3.35707 3.31607 2.6046 3.87868 2.04981C4.44129 1.49501 5.20435 1.18333 6 1.18333C6.79565 1.18333 7.55871 1.49501 8.12132 2.04981C8.68393 2.6046 9 3.35707 9 4.14167V4.73333H3V4.14167ZM10.8 11.2417C10.8 11.7124 10.6104 12.1639 10.2728 12.4968C9.93523 12.8297 9.47739 13.0167 9 13.0167H3C2.52261 13.0167 2.06477 12.8297 1.72721 12.4968C1.38964 12.1639 1.2 11.7124 1.2 11.2417V7.69167C1.2 7.22091 1.38964 6.76943 1.72721 6.43655C2.06477 6.10368 2.52261 5.91667 3 5.91667H9C9.47739 5.91667 9.93523 6.10368 10.2728 6.43655C10.6104 6.76943 10.8 7.22091 10.8 7.69167V11.2417Z" fill="#12835E"/>
<path d="M6 7C5.73478 7 5.48043 7.10536 5.29289 7.29289C5.10536 7.48043 5 7.73478 5 8V10C5 10.2652 5.10536 10.5196 5.29289 10.7071C5.48043 10.8946 5.73478 11 6 11C6.26522 11 6.51957 10.8946 6.70711 10.7071C6.89464 10.5196 7 10.2652 7 10V8C7 7.73478 6.89464 7.48043 6.70711 7.29289C6.51957 7.10536 6.26522 7 6 7Z" fill="#12835E"/>
</svg>
