<svg width="30" height="30" viewBox="0 0 30 30" fill="none" xmlns="http://www.w3.org/2000/svg">
<path d="M13.9831 2.20221C13.4938 2.40431 13.0564 2.84307 12.1803 3.71792C11.3042 4.59544 10.8654 5.03287 10.6647 5.52082C10.531 5.84349 10.4622 6.18934 10.4622 6.53861C10.4622 6.88788 10.531 7.23372 10.6647 7.5564C10.8654 8.04568 11.3028 8.48311 12.1803 9.35929C13.0551 10.2355 13.4938 10.6742 13.9831 10.875C14.6343 11.1446 15.366 11.1446 16.0172 10.875C16.5065 10.6742 16.9439 10.2368 17.82 9.35929C18.6974 8.48311 19.1335 8.04568 19.3356 7.5564C19.6052 6.90512 19.6052 6.17343 19.3356 5.52215C19.1335 5.03287 18.6974 4.59544 17.82 3.71925C16.9439 2.84174 16.5065 2.40431 16.0172 2.20221C15.366 1.9326 14.6343 1.9326 13.9831 2.20221ZM5.52088 10.6636C5.03296 10.8657 4.59423 11.3031 3.71942 12.1793C2.84196 13.0568 2.40456 13.4943 2.20248 13.9822C2.0688 14.3049 2 14.6507 2 15C2 15.3493 2.0688 15.6951 2.20248 16.0178C2.40456 16.5071 2.84329 16.9445 3.71809 17.8207C4.59556 18.6969 5.03296 19.1343 5.52088 19.3364C5.84353 19.4701 6.18936 19.5389 6.5386 19.5389C6.88785 19.5389 7.23368 19.4701 7.55633 19.3364C8.04558 19.1343 8.48298 18.6969 9.35912 17.8207C10.2366 16.9445 10.6727 16.5071 10.8747 16.0178C11.1443 15.3665 11.1443 14.6348 10.8747 13.9835C10.6727 13.4943 10.2366 13.0555 9.35912 12.1793C8.48298 11.3031 8.04558 10.8657 7.55633 10.6636C6.90509 10.394 6.17212 10.394 5.52088 10.6636ZM20.6412 12.1793C19.765 13.0568 19.3276 13.4943 19.1255 13.9822C18.9919 14.3049 18.9231 14.6507 18.9231 15C18.9231 15.3493 18.9919 15.6951 19.1255 16.0178C19.3276 16.5071 19.765 16.9445 20.6412 17.8207C21.5173 18.6969 21.956 19.1343 22.4439 19.3364C23.0952 19.606 23.8268 19.606 24.4781 19.3364C24.9673 19.1343 25.406 18.6969 26.2822 17.8207C27.1583 16.9445 27.5944 16.5071 27.7978 16.0178C28.0674 15.3665 28.0674 14.6348 27.7978 13.9835C27.5944 13.4943 27.1583 13.0555 26.2822 12.1793C25.4047 11.3031 24.9673 10.8657 24.4794 10.6636C24.1567 10.5299 23.8109 10.4611 23.4617 10.4611C23.1124 10.4611 22.7666 10.5299 22.4439 10.6636C21.956 10.8657 21.5173 11.3031 20.6412 12.1793ZM13.9831 19.125C13.4938 19.3271 13.0564 19.7658 12.1803 20.6407C11.3042 21.5182 10.8654 21.9557 10.6647 22.4449C10.3951 23.0962 10.3951 23.8279 10.6647 24.4792C10.8654 24.9685 11.3028 25.4059 12.1803 26.2821C13.0551 27.1583 13.4938 27.597 13.9831 27.7978C14.6343 28.0674 15.366 28.0674 16.0172 27.7978C16.5065 27.597 16.9439 27.1596 17.82 26.2821C18.6974 25.4059 19.1335 24.9685 19.3356 24.4792C19.6055 23.8277 19.6055 23.0964 19.3356 22.4449C19.1335 21.9557 18.6974 21.5169 17.82 20.642C16.9439 19.7645 16.5065 19.3271 16.0172 19.125C15.366 18.8554 14.6343 18.8554 13.9831 19.125Z" stroke="#12835E" stroke-width="2.6" stroke-linecap="round" stroke-linejoin="round"/>
</svg>
