<svg width="396" height="208.16787212368382" viewBox="0 0 349.99999999999994 183.98675566487202" class="css-1j8o68f"><defs id="SvgjsDefs2282"></defs><g id="SvgjsG2283" featurekey="ghXSps-0" transform="matrix(2.352589886067607,0,0,2.352589886067607,72.69373236324898,-44.18398648610568)" fill="#ffffff"><g xmlns="http://www.w3.org/2000/svg"><path d="M54.34,42.849c0.383-0.318,0.752-0.626,1.107-0.922c0.385-0.263,0.753-0.515,1.104-0.754   c0.355-0.237,0.718-0.419,1.05-0.616c0.666-0.393,1.306-0.618,1.813-0.879c1.072-0.397,1.686-0.625,1.686-0.625   s-0.164,0-0.473,0.001c-0.309,0.012-0.771-0.003-1.355,0.045c-0.568,0.107-1.305,0.138-2.09,0.39   c-0.395,0.12-0.83,0.224-1.27,0.383c-0.432,0.186-0.886,0.381-1.359,0.584c-0.453,0.251-0.925,0.514-1.414,0.784   c-0.465,0.307-0.925,0.658-1.41,1.008c-0.443,0.391-0.923,0.777-1.375,1.208c-0.432,0.446-0.897,0.894-1.298,1.397   c-0.413,0.497-0.833,1.007-1.198,1.558c-0.395,0.535-0.753,1.1-1.087,1.684c-0.7,1.151-1.273,2.386-1.816,3.626   c-0.476,1.201-0.92,2.41-1.267,3.625c0.042-1.092,0.09-2.2,0.057-3.362c-0.033-0.86-0.065-1.728-0.099-2.598   c-0.029-0.871-0.228-1.737-0.339-2.607l-0.217-1.3l-0.348-1.274c-0.258-0.839-0.409-1.706-0.768-2.504   c-0.321-0.808-0.619-1.619-0.996-2.382c-0.405-0.748-0.806-1.486-1.201-2.214c-0.454-0.689-0.905-1.365-1.367-2.009   c-0.474-0.635-1.005-1.204-1.484-1.781c-1.007-1.116-2.053-2.078-3.082-2.876c-1.012-0.815-2.008-1.47-2.921-1.986   c-0.448-0.271-0.875-0.508-1.289-0.697c-0.404-0.201-0.778-0.379-1.126-0.52c-0.681-0.307-1.245-0.479-1.622-0.606   c-0.382-0.119-0.588-0.165-0.588-0.165s0.738,0.426,1.918,1.288c0.3,0.207,0.617,0.457,0.958,0.734   c0.344,0.271,0.716,0.56,1.09,0.899c0.382,0.327,0.788,0.672,1.181,1.077c0.396,0.398,0.845,0.776,1.245,1.243   c0.846,0.884,1.675,1.914,2.507,3.019c0.383,0.578,0.814,1.143,1.183,1.765c0.345,0.639,0.736,1.263,1.104,1.913   c0.314,0.679,0.634,1.368,0.957,2.066c0.291,0.712,0.513,1.461,0.801,2.188c0.312,0.72,0.424,1.516,0.645,2.276l0.293,1.155   l0.169,1.188c0.102,0.793,0.303,1.571,0.333,2.372c0.051,0.8,0.101,1.597,0.151,2.387c0.056,1.644,0.111,3.261,0.165,4.826   c0.104,3.147,0.266,6.085,0.459,8.604c0.176,2.518,0.395,4.616,0.563,6.085c0.167,1.469,0.298,2.309,0.298,2.309   s0.131-0.84,0.298-2.309c0.027-0.237,0.056-0.496,0.085-0.765c0.232-1.118,0.569-2.681,0.986-4.535   c0.225-0.939,0.468-1.956,0.725-3.032c0.262-1.07,0.583-2.185,0.9-3.335c0.66-2.293,1.448-4.697,2.408-7.008   c0.486-1.148,1.006-2.282,1.584-3.353c0.565-1.081,1.193-2.094,1.851-3.037s1.361-1.797,2.073-2.576   C53.611,43.545,53.981,43.191,54.34,42.849z"></path><path d="M71.227,32.95l-0.021-0.006c-1.065-0.321-2.145-0.599-3.217-0.895c-0.539-0.137-1.104-0.202-1.655-0.306l-1.661-0.281   l-1.707-0.067c-0.568-0.016-1.131-0.063-1.708,0.015l-1.714,0.152c-0.57,0.079-1.133,0.258-1.693,0.386   c-0.565,0.109-1.105,0.338-1.643,0.559l-0.805,0.326c-0.262,0.12-0.51,0.279-0.76,0.427c-0.498,0.299-0.998,0.584-1.432,0.974   c-0.453,0.358-0.898,0.717-1.275,1.151l-0.572,0.633l-0.496,0.689c-0.346,0.444-0.602,0.95-0.869,1.435   c-0.228,0.511-0.464,1.009-0.625,1.537c-0.171,0.52-0.299,1.059-0.363,1.595c0.238-0.488,0.48-0.959,0.786-1.396   c0.27-0.453,0.604-0.863,0.921-1.272c0.365-0.377,0.66-0.797,1.059-1.127l0.559-0.52l0.611-0.45   c0.381-0.327,0.819-0.573,1.252-0.816c0.413-0.274,0.885-0.445,1.34-0.63c0.232-0.086,0.445-0.205,0.68-0.279l0.714-0.194   c0.472-0.134,0.937-0.278,1.438-0.312c0.492-0.056,0.974-0.141,1.464-0.178l1.49-0.027c0.492-0.039,0.996,0.044,1.495,0.093   l1.495,0.152l1.496,0.291c0.498,0.106,1,0.171,1.493,0.309c0.604,0.177,1.205,0.359,1.808,0.537   c-0.007,0.034-0.012,0.069-0.02,0.102c-0.07,0.425-0.197,0.845-0.307,1.267c-0.156,0.406-0.264,0.836-0.47,1.223l-0.269,0.6   c-0.099,0.195-0.217,0.38-0.324,0.571c-0.111,0.188-0.212,0.386-0.333,0.569l-0.396,0.528c-0.135,0.174-0.256,0.36-0.401,0.527   l-0.464,0.478L65.665,41.8l-0.515,0.434c-0.355,0.276-0.67,0.614-1.076,0.832l-1.166,0.74l-1.264,0.609   c-0.211,0.102-0.42,0.215-0.637,0.31l-0.674,0.234c-0.449,0.16-0.904,0.308-1.357,0.482c-0.459,0.146-0.936,0.243-1.406,0.369   l-1.428,0.36c-0.969,0.159-1.946,0.328-2.938,0.533c0.992,0.116,1.996,0.196,3.01,0.267c0.506,0.015,1.011-0.025,1.52-0.045   c0.508-0.03,1.023-0.033,1.533-0.088c0.508-0.074,1.013-0.177,1.523-0.267l0.767-0.14c0.252-0.064,0.499-0.149,0.751-0.225   c0.5-0.154,1.006-0.306,1.504-0.485l1.44-0.694c0.497-0.207,0.922-0.552,1.382-0.837c0.225-0.152,0.459-0.294,0.676-0.459   l0.609-0.548l0.609-0.554c0.193-0.194,0.365-0.412,0.547-0.618l0.539-0.63c0.167-0.219,0.312-0.454,0.471-0.683   c0.323-0.451,0.602-0.931,0.838-1.434c0.271-0.486,0.438-1.018,0.648-1.531c0.163-0.531,0.34-1.06,0.436-1.613   c0.12-0.563,0.188-1.069,0.219-1.759C72.255,33.733,71.856,33.141,71.227,32.95z"></path><path d="M30.525,36.803c-0.495-0.235-1.018-0.402-1.485-0.691l-1.425-0.788c-0.488-0.235-0.925-0.553-1.37-0.853   c-0.437-0.312-0.903-0.577-1.312-0.919l-1.228-1.01c-0.414-0.328-0.754-0.734-1.133-1.094c-0.387-0.355-0.71-0.766-1.034-1.172   c-0.336-0.396-0.651-0.807-0.93-1.242c-0.298-0.421-0.586-0.847-0.819-1.307l-0.374-0.671l-0.312-0.701   c-0.226-0.459-0.375-0.946-0.548-1.423c-0.137-0.484-0.31-0.965-0.402-1.452c-0.024-0.095-0.045-0.195-0.065-0.294l0.907-0.287   l2.046-0.527c0.683-0.146,1.367-0.288,2.052-0.413c0.685-0.069,1.374-0.214,2.056-0.227l1.025-0.051   c0.34-0.004,0.676,0.021,1.015,0.029c0.681-0.003,1.338,0.107,2.004,0.188l0.977,0.202c0.323,0.075,0.631,0.193,0.949,0.286   c0.323,0.082,0.614,0.236,0.92,0.36c0.311,0.117,0.6,0.273,0.886,0.438c0.296,0.147,0.586,0.308,0.855,0.502   c0.277,0.182,0.56,0.359,0.811,0.58c0.529,0.407,1.019,0.875,1.473,1.381c0.907,1.011,1.711,2.16,2.354,3.42   c0.326,0.625,0.624,1.274,0.894,1.938c0.276,0.662,0.504,1.347,0.722,2.038c0.427,1.387,0.778,2.814,0.993,4.279   c0.148-1.479,0.091-2.979-0.082-4.474c-0.104-0.745-0.231-1.49-0.406-2.229c-0.17-0.739-0.37-1.479-0.647-2.196   c-0.259-0.723-0.571-1.433-0.932-2.124c-0.355-0.694-0.765-1.371-1.247-2c-0.474-0.635-1.002-1.24-1.592-1.788   c-0.281-0.29-0.599-0.539-0.916-0.791c-0.309-0.264-0.643-0.493-0.989-0.708c-0.34-0.225-0.689-0.433-1.059-0.602   c-0.366-0.175-0.723-0.379-1.108-0.506c-0.38-0.138-0.757-0.298-1.144-0.413l-1.17-0.311c-0.392-0.096-0.789-0.141-1.185-0.212   c-0.396-0.075-0.792-0.121-1.189-0.131c-0.396-0.019-0.795-0.053-1.19-0.056l-1.181,0.035c-0.792,0.006-1.556,0.146-2.336,0.216   c-0.765,0.124-1.525,0.268-2.284,0.417c-0.742,0.197-1.487,0.392-2.221,0.607l-2.167,0.73l-0.038,0.012   c-0.59,0.199-0.989,0.781-0.931,1.428c0.067,0.744,0.17,1.299,0.325,1.908c0.135,0.601,0.327,1.176,0.537,1.744   c0.233,0.559,0.448,1.124,0.74,1.65l0.413,0.802l0.478,0.762c0.303,0.518,0.662,0.995,1.032,1.463   c0.185,0.234,0.358,0.477,0.551,0.702l0.621,0.641c0.41,0.429,0.82,0.854,1.288,1.216c0.46,0.367,0.884,0.779,1.373,1.103   l1.459,0.965c0.49,0.312,1.027,0.541,1.536,0.812c0.515,0.261,1.021,0.535,1.566,0.72c0.533,0.211,1.076,0.397,1.609,0.595   c0.527,0.218,1.097,0.308,1.64,0.465l1.646,0.404c1.116,0.18,2.236,0.311,3.341,0.447c-1.054-0.395-2.097-0.781-3.135-1.145   L30.525,36.803z"></path></g></g><g id="SvgjsG2284" featurekey="anH1Ye-0" transform="matrix(2.271841950414981,0,0,2.271841950414981,-3.1351410682656926,137.7774900467757)" fill="#ffffff"><path d="M5.8 5.720000000000001 l3.34 9.82 l0.04 0 l3.16 -9.82 l4.42 0 l0 14.28 l-2.94 0 l0 -10.12 l-0.04 0 l-3.5 10.12 l-2.42 0 l-3.5 -10.02 l-0.04 0 l0 10.02 l-2.94 0 l0 -14.28 l4.42 0 z M22.66 5.720000000000001 l0 14.28 l-3.14 0 l0 -14.28 l3.14 0 z M30.34 5.380000000000001 c1.7467 0 3.1366 0.40002 4.17 1.2 s1.55 1.9333 1.55 3.4 l-3.04 0 c-0.04 -0.72 -0.28334 -1.26 -0.73 -1.62 s-1.1367 -0.54 -2.07 -0.54 c-0.65334 0 -1.18 0.14334 -1.58 0.43 s-0.6 0.68332 -0.6 1.19 c0 0.41334 0.12334 0.71334 0.37 0.9 s0.59666 0.35332 1.05 0.49998 s1.2467 0.36 2.38 0.64 c1.1867 0.29334 2.1 0.61334 2.74 0.96 s1.1267 0.79 1.46 1.33 s0.5 1.2033 0.5 1.99 c0 0.90666 -0.24 1.7133 -0.72 2.42 s-1.18 1.2433 -2.1 1.61 s-1.96 0.55 -3.12 0.55 c-1.7733 0 -3.23 -0.44334 -4.37 -1.33 s-1.71 -2.1034 -1.71 -3.65 l0 -0.1 l3.04 0 c0 0.84 0.28666 1.49 0.86 1.95 s1.3333 0.69 2.28 0.69 c0.84 0 1.5167 -0.15 2.03 -0.45 s0.77 -0.74334 0.77 -1.33 c0 -0.38666 -0.14 -0.71332 -0.42 -0.97998 s-0.65334 -0.48332 -1.12 -0.64998 s-1.2533 -0.37666 -2.36 -0.63 c-1.28 -0.32 -2.2134 -0.66 -2.8 -1.02 s-1.0333 -0.79666 -1.34 -1.31 s-0.46 -1.13 -0.46 -1.85 c0 -0.89334 0.25666 -1.6733 0.77 -2.34 s1.1833 -1.16 2.01 -1.48 s1.68 -0.48 2.56 -0.48 z M50.42 5.720000000000001 c1.52 0 2.72 0.41334 3.6 1.24 s1.32 1.94 1.32 3.34 c0 1.4133 -0.44 2.53 -1.32 3.35 s-2.0734 1.23 -3.58 1.23 l-3.34 0 l0 5.12 l-3.14 0 l0 -14.28 l6.46 0 z M49.599999999999994 12.440000000000001 c0.90666 0 1.5833 -0.16666 2.03 -0.5 s0.67 -0.88 0.67 -1.64 c0 -0.73334 -0.21666 -1.2733 -0.65 -1.62 s-1.11 -0.52 -2.03 -0.52 l-2.52 0 l0 4.28 l2.5 0 z M60.44 5.720000000000001 l0 11.64 l6.96 0 l0 2.64 l-10.1 0 l0 -14.28 l3.14 0 z M76.28 5.720000000000001 l5.34 14.28 l-3.26 0 l-1.08 -3.18 l-5.34 0 l-1.12 3.18 l-3.18 0 l5.42 -14.28 l3.22 0 z M74.62 9.24 l-1.86 5.24 l3.7 0 l-1.8 -5.24 l-0.04 0 z M85.98 5.720000000000001 l5.96 9.58 l0.04 0 l0 -9.58 l2.94 0 l0 14.28 l-3.14 0 l-5.94 -9.56 l-0.04 0 l0 9.56 l-2.94 0 l0 -14.28 l3.12 0 z M108.26000000000002 5.720000000000001 l0 2.64 l-4.28 0 l0 11.64 l-3.14 0 l0 -11.64 l-4.28 0 l0 -2.64 l11.7 0 z M113.04 5.720000000000001 l0 14.28 l-3.14 0 l0 -14.28 l3.14 0 z M122.20000000000002 5.380000000000001 c1.6667 0 3.0666 0.47 4.2 1.41 s1.7867 2.1834 1.96 3.73 l-3.04 0 c-0.10666 -0.70666 -0.46 -1.3 -1.06 -1.78 s-1.2867 -0.72 -2.06 -0.72 c-1.2267 0 -2.18 0.44 -2.86 1.32 s-1.02 2.0734 -1.02 3.58 c0 1.4667 0.34334 2.63 1.03 3.49 s1.6367 1.29 2.85 1.29 c0.90666 0 1.64 -0.27666 2.2 -0.83 s0.90666 -1.3433 1.04 -2.37 l3.04 0 c-0.16 1.8133 -0.81 3.24 -1.95 4.28 s-2.5834 1.56 -4.33 1.56 c-2.0934 0 -3.7866 -0.69 -5.08 -2.07 s-1.94 -3.1634 -1.94 -5.35 c0 -2.2134 0.64 -4.0234 1.92 -5.43 s2.98 -2.11 5.1 -2.11 z M137.74 5.720000000000001 l5.34 14.28 l-3.26 0 l-1.08 -3.18 l-5.34 0 l-1.12 3.18 l-3.18 0 l5.42 -14.28 l3.22 0 z M136.08 9.24 l-1.86 5.24 l3.7 0 l-1.8 -5.24 l-0.04 0 z M149.24 5.380000000000001 c1.7467 0 3.1366 0.40002 4.17 1.2 s1.55 1.9333 1.55 3.4 l-3.04 0 c-0.04 -0.72 -0.28334 -1.26 -0.73 -1.62 s-1.1367 -0.54 -2.07 -0.54 c-0.65334 0 -1.18 0.14334 -1.58 0.43 s-0.6 0.68332 -0.6 1.19 c0 0.41334 0.12334 0.71334 0.37 0.9 s0.59666 0.35332 1.05 0.49998 s1.2467 0.36 2.38 0.64 c1.1867 0.29334 2.1 0.61334 2.74 0.96 s1.1267 0.79 1.46 1.33 s0.5 1.2033 0.5 1.99 c0 0.90666 -0.24 1.7133 -0.72 2.42 s-1.18 1.2433 -2.1 1.61 s-1.96 0.55 -3.12 0.55 c-1.7733 0 -3.23 -0.44334 -4.37 -1.33 s-1.71 -2.1034 -1.71 -3.65 l0 -0.1 l3.04 0 c0 0.84 0.28666 1.49 0.86 1.95 s1.3333 0.69 2.28 0.69 c0.84 0 1.5167 -0.15 2.03 -0.45 s0.77 -0.74334 0.77 -1.33 c0 -0.38666 -0.14 -0.71332 -0.42 -0.97998 s-0.65334 -0.48332 -1.12 -0.64998 s-1.2533 -0.37666 -2.36 -0.63 c-1.28 -0.32 -2.2134 -0.66 -2.8 -1.02 s-1.0333 -0.79666 -1.34 -1.31 s-0.46 -1.13 -0.46 -1.85 c0 -0.89334 0.25666 -1.6733 0.77 -2.34 s1.1833 -1.16 2.01 -1.48 s1.68 -0.48 2.56 -0.48 z"></path></g></svg>