<svg width="21" height="20" viewBox="0 0 21 20" fill="none" xmlns="http://www.w3.org/2000/svg">
<path d="M10.698 0.0243903C9.26929 -0.0755755 7.83578 0.132512 6.49447 0.634571C5.15316 1.13663 3.93534 1.92095 2.92342 2.93445C1.91149 3.94796 1.12908 5.167 0.629112 6.50909C0.129147 7.85119 -0.0767034 9.28501 0.0254916 10.7136C0.392992 16.0077 5.06966 20.0011 10.9038 20.0011H15.8347C16.9393 19.9997 17.9984 19.5603 18.7795 18.7792C19.5606 17.9981 20 16.9391 20.0013 15.8344V10.2844C20.0324 7.7156 19.0906 5.23014 17.3649 3.32703C15.6393 1.42393 13.2576 0.244088 10.698 0.0243903ZM15.5847 8.09439L9.92382 13.6836C9.61145 13.9947 9.1885 14.1695 8.74757 14.1695C8.30665 14.1695 7.8837 13.9947 7.57132 13.6836L4.41799 10.5969C4.25997 10.4422 4.16987 10.231 4.16753 10.0099C4.16518 9.78876 4.25078 9.57575 4.40549 9.41773C4.5602 9.2597 4.77135 9.16961 4.99249 9.16726C5.21362 9.16492 5.42663 9.25052 5.58466 9.40522L8.74549 12.4944L14.4172 6.91106C14.5771 6.77033 14.7849 6.6962 14.9978 6.7039C15.2107 6.7116 15.4125 6.80055 15.5619 6.95246C15.7112 7.10438 15.7967 7.30773 15.8008 7.52073C15.8049 7.73372 15.7273 7.9402 15.5838 8.09772L15.5847 8.09439Z" fill="#12835E"/>
</svg>
