<svg width="12" height="19" viewBox="0 0 12 19" fill="none" xmlns="http://www.w3.org/2000/svg">
<path d="M1.31191 3.02904L7.77858 9.49571L1.31191 15.9624C1.15761 16.1167 1.03521 16.2999 0.9517 16.5015C0.868192 16.7031 0.825209 16.9192 0.825209 17.1374C0.825209 17.3556 0.868192 17.5717 0.9517 17.7733C1.03521 17.9749 1.15761 18.1581 1.31191 18.3124C1.46621 18.4667 1.6494 18.5891 1.85101 18.6726C2.05261 18.7561 2.26869 18.7991 2.48691 18.7991C2.70513 18.7991 2.92121 18.7561 3.12282 18.6726C3.32442 18.5891 3.50761 18.4667 3.66191 18.3124L11.3119 10.6624C11.4664 10.5082 11.589 10.325 11.6726 10.1234C11.7563 9.92179 11.7993 9.70565 11.7993 9.48737C11.7993 9.26909 11.7563 9.05295 11.6726 8.85133C11.589 8.64971 11.4664 8.46656 11.3119 8.31237L3.66191 0.662374C3.01191 0.0123737 1.96191 0.0123737 1.31191 0.662374C0.678577 1.31237 0.66191 2.37904 1.31191 3.02904Z" fill="#12835E"/>
</svg>
