<svg width="14" height="14" viewBox="0 0 14 14" fill="none" xmlns="http://www.w3.org/2000/svg">
<path d="M7.81997 0.276545L13.7526 6.36051C13.8424 6.45269 13.9063 6.55255 13.944 6.6601C13.9818 6.76764 14.0003 6.88287 13.9997 7.00578C13.9997 7.12869 13.9809 7.24391 13.9431 7.35146C13.9054 7.459 13.8418 7.55887 13.7526 7.65105L7.81997 13.735C7.65518 13.904 7.44904 13.9922 7.20155 13.9996C6.95406 14.0069 6.74073 13.9188 6.56155 13.735C6.38177 13.566 6.28799 13.3546 6.2802 13.1008C6.27241 12.847 6.3587 12.6282 6.53908 12.4445L10.9436 7.92759H0.898635C0.643954 7.92759 0.430321 7.8391 0.257737 7.66211C0.0851534 7.48512 -0.000839601 7.26634 -0.000240351 7.00578C-0.000240351 6.7446 0.0857526 6.52551 0.257737 6.34853C0.429722 6.17154 0.643354 6.08335 0.898635 6.08397H10.9436L6.53908 1.56708C6.37428 1.39808 6.28799 1.18299 6.2802 0.921813C6.27241 0.660633 6.3587 0.445544 6.53908 0.276545C6.70387 0.0921825 6.91361 1.09508e-07 7.16829 1.09508e-07C7.42297 1.09508e-07 7.6402 0.0921825 7.81997 0.276545Z" fill="#12835E"/>
</svg>
