<svg width="15" height="15" viewBox="0 0 15 15" fill="none" xmlns="http://www.w3.org/2000/svg">
<path d="M13.7744 7.99493C13.652 7.85808 13.5845 7.68216 13.5845 7.5C13.5845 7.31784 13.652 7.14192 13.7744 7.00507L14.7516 5.92521C14.8593 5.80723 14.9261 5.65878 14.9426 5.50115C14.959 5.34353 14.9242 5.18483 14.8432 5.04783L13.3164 2.45319C13.2362 2.31635 13.114 2.20788 12.9673 2.14324C12.8206 2.07861 12.6569 2.06111 12.4995 2.09324L11.0643 2.3782C10.8817 2.41526 10.6916 2.38539 10.5299 2.29421C10.3681 2.20303 10.246 2.05685 10.1864 1.88326L9.72076 0.510951C9.66954 0.362005 9.57197 0.232637 9.44183 0.141132C9.31169 0.0496274 9.15557 0.000614014 8.99552 0.00101983H5.94191C5.77544 -0.00751554 5.6107 0.0377096 5.47285 0.129788C5.335 0.221866 5.23162 0.355736 5.17851 0.510951L4.751 1.88326C4.69146 2.05685 4.56929 2.20303 4.40756 2.29421C4.24582 2.38539 4.05571 2.41526 3.87309 2.3782L2.39972 2.09324C2.25051 2.07252 2.0984 2.09565 1.96256 2.15971C1.82671 2.22376 1.71319 2.32587 1.63632 2.45319L0.109511 5.04783C0.0264222 5.1833 -0.0109372 5.34111 0.00277386 5.49869C0.0164849 5.65627 0.0805644 5.80556 0.185851 5.92521L1.15537 7.00507C1.27776 7.14192 1.34526 7.31784 1.34526 7.5C1.34526 7.68216 1.27776 7.85808 1.15537 7.99493L0.185851 9.07479C0.0805644 9.19444 0.0164849 9.34373 0.00277386 9.50131C-0.0109372 9.65889 0.0264222 9.8167 0.109511 9.95217L1.63632 12.5468C1.71655 12.6837 1.83871 12.7921 1.98538 12.8568C2.13206 12.9214 2.29576 12.9389 2.45316 12.9068L3.88836 12.6218C4.07098 12.5847 4.26109 12.6146 4.42282 12.7058C4.58456 12.797 4.70673 12.9431 4.76627 13.1167L5.23195 14.489C5.28506 14.6443 5.38844 14.7781 5.52629 14.8702C5.66414 14.9623 5.82888 15.0075 5.99535 14.999H9.04896C9.209 14.9994 9.36513 14.9504 9.49527 14.8589C9.62541 14.7674 9.72298 14.638 9.77419 14.489L10.2399 13.1167C10.2994 12.9431 10.4216 12.797 10.5833 12.7058C10.745 12.6146 10.9352 12.5847 11.1178 12.6218L12.553 12.9068C12.7104 12.9389 12.8741 12.9214 13.0208 12.8568C13.1674 12.7921 13.2896 12.6837 13.3698 12.5468L14.8966 9.95217C14.9777 9.81517 15.0125 9.65647 14.996 9.49885C14.9796 9.34122 14.9127 9.19277 14.805 9.07479L13.7744 7.99493ZM12.637 8.9998L13.2477 9.6747L12.2705 11.3395L11.3697 11.1595C10.8199 11.0491 10.2479 11.1408 9.76243 11.4173C9.27693 11.6938 8.91166 12.1357 8.73597 12.6593L8.44587 13.4992H6.49156L6.21674 12.6443C6.04104 12.1208 5.67577 11.6788 5.19027 11.4023C4.70476 11.1258 4.13281 11.0341 3.58299 11.1445L2.68218 11.3245L1.68976 9.66721L2.30048 8.9923C2.67604 8.57984 2.88367 8.04587 2.88367 7.4925C2.88367 6.93913 2.67604 6.40517 2.30048 5.9927L1.68976 5.3178L2.66691 3.66802L3.56773 3.848C4.11755 3.9584 4.68949 3.86665 5.175 3.59018C5.66051 3.31371 6.02577 2.87175 6.20147 2.3482L6.49156 1.50082H8.44587L8.73597 2.3557C8.91166 2.87925 9.27693 3.32121 9.76243 3.59768C10.2479 3.87415 10.8199 3.9659 11.3697 3.8555L12.2705 3.67552L13.2477 5.34029L12.637 6.0152C12.2656 6.42672 12.0606 6.95759 12.0606 7.5075C12.0606 8.05741 12.2656 8.58828 12.637 8.9998ZM7.46872 4.50041C6.86477 4.50041 6.27438 4.67633 5.77222 5.00593C5.27006 5.33553 4.87867 5.804 4.64755 6.35211C4.41643 6.90021 4.35595 7.50333 4.47378 8.08519C4.5916 8.66706 4.88243 9.20153 5.30949 9.62103C5.73654 10.0405 6.28064 10.3262 6.87299 10.442C7.46533 10.5577 8.07931 10.4983 8.63728 10.2713C9.19526 10.0442 9.67217 9.65976 10.0077 9.16648C10.3432 8.6732 10.5223 8.09326 10.5223 7.5C10.5223 6.70446 10.2006 5.9415 9.62795 5.37897C9.05528 4.81644 8.27858 4.50041 7.46872 4.50041ZM7.46872 8.9998C7.16674 8.9998 6.87155 8.91183 6.62047 8.74703C6.36939 8.58223 6.17369 8.348 6.05813 8.07395C5.94257 7.79989 5.91234 7.49834 5.97125 7.2074C6.03016 6.91647 6.17557 6.64923 6.3891 6.43948C6.60263 6.22973 6.87468 6.08689 7.17085 6.02902C7.46702 5.97115 7.77401 6.00085 8.053 6.11437C8.33199 6.22788 8.57044 6.42012 8.73821 6.66676C8.90598 6.9134 8.99552 7.20337 8.99552 7.5C8.99552 7.89777 8.83466 8.27925 8.54833 8.56052C8.262 8.84178 7.87365 8.9998 7.46872 8.9998Z" fill="#12835E"/>
</svg>
