<svg width="14" height="16" viewBox="0 0 14 16" fill="none" xmlns="http://www.w3.org/2000/svg">
<path d="M2.15405 6.4615H5.38482V7.53842H2.15405V6.4615ZM2.15405 2.15381H8.61559V3.23073H2.15405V2.15381ZM2.15405 4.30765H8.61559V5.38458H2.15405V4.30765ZM2.15405 11.8461H5.38482V12.923H2.15405V11.8461ZM14.0002 11.8461V10.7692H12.8689C12.7995 10.4321 12.6656 10.1116 12.4747 9.82527L13.2771 9.02296L12.5157 8.26158L11.7134 9.06389C11.427 8.87301 11.1065 8.73918 10.7694 8.66973V7.53842H9.69251V8.66973C9.35545 8.73918 9.03495 8.87301 8.74859 9.06389L7.94628 8.26158L7.1849 9.02296L7.98721 9.82527C7.79633 10.1116 7.6625 10.4321 7.59305 10.7692H6.46175V11.8461H7.59305C7.6625 12.1832 7.79633 12.5037 7.98721 12.79L7.1849 13.5923L7.94628 14.3537L8.74859 13.5514C9.03495 13.7423 9.35545 13.8761 9.69251 13.9456V15.0769H10.7694V13.9456C11.1065 13.8761 11.427 13.7423 11.7134 13.5514L12.5157 14.3537L13.2771 13.5923L12.4747 12.79C12.6656 12.5037 12.7995 12.1832 12.8689 11.8461H14.0002ZM10.231 12.923C9.91148 12.923 9.59917 12.8283 9.33352 12.6508C9.06787 12.4733 8.86082 12.221 8.73856 11.9258C8.61629 11.6307 8.5843 11.3059 8.64663 10.9925C8.70896 10.6792 8.86281 10.3913 9.08873 10.1654C9.31464 9.93949 9.60248 9.78564 9.91583 9.72331C10.2292 9.66098 10.554 9.69297 10.8492 9.81523C11.1443 9.9375 11.3966 10.1445 11.5741 10.4102C11.7516 10.6758 11.8464 10.9882 11.8464 11.3077C11.8459 11.736 11.6756 12.1466 11.3728 12.4494C11.0699 12.7523 10.6593 12.9226 10.231 12.923Z" fill="#12835E"/>
<path d="M5.38462 15.0769H1.07692C0.791393 15.0766 0.517639 14.9631 0.315738 14.7612C0.113838 14.5593 0.000285103 14.2855 0 14V1.07692C0.000285103 0.791393 0.113838 0.517639 0.315738 0.315738C0.517639 0.113838 0.791393 0.000285103 1.07692 0H9.69231C9.97784 0.000285103 10.2516 0.113838 10.4535 0.315738C10.6554 0.517639 10.7689 0.791393 10.7692 1.07692V6.46154H9.69231V1.07692H1.07692V14H5.38462V15.0769Z" fill="#12835E"/>
</svg>
