<svg width="31" height="31" viewBox="0 0 31 31" fill="none" xmlns="http://www.w3.org/2000/svg">
<rect width="31" height="31" rx="4" fill="#12835E"/>
<path d="M11.3 21.8C10.145 21.8 9.2105 22.745 9.2105 23.9C9.2105 25.055 10.145 26 11.3 26C12.455 26 13.4 25.055 13.4 23.9C13.4 22.745 12.455 21.8 11.3 21.8ZM5 5V7.1H7.1L10.88 15.0695L9.4625 17.642C9.2945 17.936 9.2 18.2825 9.2 18.65C9.2 19.805 10.145 20.75 11.3 20.75H23.9V18.65H11.741C11.594 18.65 11.4785 18.5345 11.4785 18.3875L11.51 18.2615L12.455 16.55H20.2775C21.065 16.55 21.758 16.1195 22.115 15.4685L25.874 8.654C25.958 8.507 26 8.3285 26 8.15C26 7.5725 25.5275 7.1 24.95 7.1H9.4205L8.4335 5H5ZM21.8 21.8C20.645 21.8 19.7105 22.745 19.7105 23.9C19.7105 25.055 20.645 26 21.8 26C22.955 26 23.9 25.055 23.9 23.9C23.9 22.745 22.955 21.8 21.8 21.8Z" fill="white"/>
</svg>
