<svg width="12" height="12" viewBox="0 0 15 14" fill="none" xmlns="http://www.w3.org/2000/svg">
<path d="M7.49963 11.7286L3.86408 13.8689C3.70348 13.9688 3.53557 14.0116 3.36036 13.9973C3.18515 13.9831 3.03185 13.926 2.90044 13.8261C2.76904 13.7262 2.66683 13.6012 2.59383 13.4511C2.52083 13.301 2.50623 13.1335 2.55003 12.9486L3.51367 8.9035L0.294239 6.18536C0.148233 6.05695 0.0571255 5.91055 0.020916 5.74618C-0.0152934 5.58181 -0.00448903 5.42143 0.0533293 5.26505C0.111732 5.1081 0.199335 4.97968 0.31614 4.8798C0.432944 4.77992 0.593551 4.71571 0.797959 4.68718L5.04673 4.32333L6.68929 0.513664C6.7623 0.342443 6.8756 0.214026 7.0292 0.128416C7.18279 0.0428054 7.3396 0 7.49963 0C7.66023 0 7.81704 0.0428054 7.97006 0.128416C8.12307 0.214026 8.23637 0.342443 8.30996 0.513664L9.95252 4.32333L14.2013 4.68718C14.4057 4.71571 14.5663 4.77992 14.6831 4.8798C14.7999 4.97968 14.8875 5.1081 14.9459 5.26505C15.0043 5.422 15.0154 5.58266 14.9792 5.74704C14.943 5.91141 14.8516 6.05752 14.705 6.18536L11.4856 8.9035L12.4492 12.9486C12.493 13.1341 12.4784 13.3019 12.4054 13.452C12.3324 13.6021 12.2302 13.7268 12.0988 13.8261C11.9674 13.926 11.8141 13.9831 11.6389 13.9973C11.4637 14.0116 11.2958 13.9688 11.1352 13.8689L7.49963 11.7286Z" fill="#FBBC05"/>
</svg>
