<svg width="15" height="15" viewBox="0 0 15 15" fill="none" xmlns="http://www.w3.org/2000/svg">
<path d="M8.13075 9.825L7.5 8.25L6.86925 9.825L5.25 9.969L6.48 11.0858L6.1095 12.75L7.5 11.8657L8.8905 12.75L8.52 11.0858L9.75 9.969L8.13075 9.825ZM3 0H12V1.5H3V0ZM1.5 3H13.5V4.5H1.5V3Z" fill="#12835E"/>
<path d="M13.5 7.50006V13.5001H1.5V7.50006H13.5ZM13.5 6.00006H1.5C1.10218 6.00006 0.720644 6.1581 0.43934 6.4394C0.158035 6.72071 0 7.10224 0 7.50006V13.5001C0 13.8979 0.158035 14.2794 0.43934 14.5607C0.720644 14.842 1.10218 15.0001 1.5 15.0001H13.5C13.8978 15.0001 14.2794 14.842 14.5607 14.5607C14.842 14.2794 15 13.8979 15 13.5001V7.50006C15 7.10224 14.842 6.72071 14.5607 6.4394C14.2794 6.1581 13.8978 6.00006 13.5 6.00006Z" fill="#12835E"/>
</svg>
