<svg width="30" height="29" viewBox="0 0 30 29" fill="none" xmlns="http://www.w3.org/2000/svg">
<path d="M11.9837 27.1912L24.984 14.1909L18.8091 8.01598L5.80882 21.0163C5.62985 21.1955 5.50271 21.4198 5.4409 21.6654L4 29L11.3332 27.5591C11.5794 27.4975 11.8047 27.3702 11.9837 27.1912ZM29.1808 9.99407C29.7053 9.4694 30 8.75788 30 8.01598C30 7.27409 29.7053 6.56257 29.1808 6.03789L26.9621 3.81918C26.4374 3.29466 25.7259 3 24.984 3C24.2421 3 23.5306 3.29466 23.0059 3.81918L20.7872 6.03789L26.9621 12.2128L29.1808 9.99407Z" fill="#12835E"/>
<path d="M11.7771 3.672L9.95656 2.8L11.7771 1.928L12.6006 0L13.424 1.928L15.2446 2.8L13.424 3.672L12.6006 5.6L11.7771 3.672ZM14.7007 8.576L14.1114 7.2L13.5222 8.576L12.2229 9.2L13.5222 9.824L14.1114 11.2L14.7007 9.824L16 9.2L14.7007 8.576ZM10.8933 9.896L12.3588 11.072L10.4703 14.536L8.77809 13.784C8.62701 13.888 8.46081 13.992 8.29462 14.08L8.06799 16H4.29084L4.06421 14.072C3.89802 13.984 3.73938 13.888 3.58074 13.776L1.88857 14.528L0 11.064L1.46553 9.888C1.45798 9.8 1.45798 9.696 1.45798 9.6C1.45798 9.504 1.45798 9.4 1.46553 9.304L0 8.128L1.88857 4.664L3.58074 5.416C3.73182 5.312 3.89802 5.208 4.06421 5.12L4.29084 3.2H8.06799L8.29462 5.128C8.46081 5.216 8.61945 5.312 8.77809 5.424L10.4703 4.672L12.3588 8.136L10.8933 9.312C10.9008 9.408 10.9008 9.504 10.9008 9.608C10.9008 9.712 10.9008 9.8 10.8933 9.896ZM8.4457 9.6C8.4457 8.272 7.43343 7.2 6.17941 7.2C4.9254 7.2 3.91313 8.272 3.91313 9.6C3.91313 10.928 4.9254 12 6.17941 12C7.43343 12 8.4457 10.928 8.4457 9.6Z" fill="#12835E"/>
</svg>
