<svg width="16" height="16" viewBox="0 0 16 16" fill="none" xmlns="http://www.w3.org/2000/svg">
<path d="M12.4545 4.81818C12.4545 4.81818 9.27273 9.27273 4.5 9.27273M4.5 9.27273C3.22727 9.27273 1 9.90909 1 12.4545V15H8V12.4545C8 10.8636 9.90909 11.8182 12.4545 7.36364L11.5 6.40909M4.5 9.27273C5.09071 9.27273 5.65722 9.03807 6.07492 8.62037C6.49261 8.20268 6.72727 7.63616 6.72727 7.04545C6.72727 6.45475 6.49261 5.88823 6.07492 5.47053C5.65722 5.05284 5.09071 4.81818 4.5 4.81818C3.90929 4.81818 3.34278 5.05284 2.92508 5.47053C2.50739 5.88823 2.27273 6.45475 2.27273 7.04545C2.27273 7.63616 2.50739 8.20268 2.92508 8.62037C3.34278 9.03807 3.90929 9.27273 4.5 9.27273ZM2.27273 3.54545V1.63636H15V10.5455H13.0909M7.36364 1H9.90909V2.27273H7.36364V1Z" stroke="#12835E" stroke-width="1.4"/>
</svg>
