<svg width="28" height="25" viewBox="0 0 28 25" fill="none" xmlns="http://www.w3.org/2000/svg">
<path d="M25.4641 0.00255973C25.1245 0.0275672 24.7911 0.108206 24.4771 0.24133H24.4728C24.1713 0.362321 22.7378 0.972632 20.5585 1.89773L12.7488 5.2266C7.1449 7.61431 1.63623 9.96561 1.63623 9.96561L1.70183 9.93991C1.70183 9.93991 1.32203 10.0663 0.925302 10.3414C0.680208 10.4993 0.469304 10.7058 0.305352 10.9485C0.110692 11.2376 -0.0458822 11.6798 0.0123043 12.137C0.107518 12.9101 0.602632 13.3737 0.958098 13.6296C1.3178 13.8887 1.66057 14.0097 1.66057 14.0097H1.66903L6.83493 15.7711C7.06662 16.5238 8.40914 20.9908 8.73181 22.0198C8.92224 22.6344 9.10737 23.0188 9.33906 23.3121C9.4512 23.462 9.58239 23.5873 9.74002 23.688C9.82197 23.7362 9.90934 23.7743 10.0003 23.8015L9.94737 23.7886C9.96324 23.7929 9.97594 23.8057 9.98758 23.81C10.0299 23.8218 10.0585 23.8261 10.1124 23.8346C10.9302 24.0852 11.5872 23.5712 11.5872 23.5712L11.6242 23.5413L14.6742 20.7306L19.7862 24.6998L19.9025 24.7501C20.9679 25.2234 22.047 24.96 22.6172 24.4953C23.1917 24.0274 23.4149 23.4288 23.4149 23.4288L23.4519 23.3325L27.4023 2.85067C27.5144 2.34529 27.543 1.87204 27.4192 1.4127C27.2915 0.947818 26.9968 0.547992 26.5929 0.291654C26.2538 0.0829867 25.8605 -0.017732 25.4641 0.00255973ZM25.3573 2.19754C25.353 2.26499 25.3657 2.2575 25.3361 2.38705V2.39883L21.4228 22.6676C21.4059 22.6965 21.3773 22.7596 21.299 22.8228C21.2165 22.8892 21.1509 22.931 20.8071 22.7928L14.5547 17.9414L10.7779 21.4255L11.5713 16.2968L21.7867 6.6603C22.2078 6.26413 22.0671 6.18061 22.0671 6.18061C22.0967 5.69451 21.4313 6.03821 21.4313 6.03821L8.54984 14.1146L8.54561 14.0932L2.3715 11.9893V11.985L2.35563 11.9818C2.36645 11.9781 2.37705 11.9738 2.38737 11.9689L2.42122 11.9518L2.45402 11.94C2.45402 11.94 7.96692 9.58871 13.5708 7.20101C16.3764 6.00501 19.2033 4.80046 21.3773 3.87107C22.6667 3.32179 23.9573 2.77573 25.2494 2.23287C25.3361 2.19861 25.2948 2.19754 25.3573 2.19754Z" fill="#072F3B"/>
</svg>
