<svg width="31" height="25" viewBox="0 0 31 25" fill="none" xmlns="http://www.w3.org/2000/svg">
<path d="M30.5 2.94118C29.3958 3.45588 28.2055 3.79412 26.9723 3.95588C28.2342 3.17647 29.2094 1.94118 29.6683 0.455882C28.478 1.19118 27.1587 1.70588 25.7677 2C24.6348 0.735294 23.043 0 21.2361 0C17.8662 0 15.1128 2.82353 15.1128 6.30882C15.1128 6.80882 15.1702 7.29412 15.2706 7.75C10.1654 7.48529 5.6195 4.97059 2.59369 1.16176C2.0631 2.08824 1.76195 3.17647 1.76195 4.32353C1.76195 6.51471 2.83748 8.45588 4.50096 9.55882C3.48279 9.55882 2.53633 9.26471 1.70459 8.82353V8.86765C1.70459 11.9265 3.82696 14.4853 6.63767 15.0588C5.73527 15.3121 4.7879 15.3473 3.86998 15.1618C4.25947 16.4154 5.02228 17.5124 6.05117 18.2984C7.08006 19.0845 8.3233 19.5201 9.60612 19.5441C7.43159 21.3095 4.73613 22.2637 1.96272 22.25C1.47514 22.25 0.987572 22.2206 0.5 22.1618C3.22467 23.9559 6.46558 25 9.93595 25C21.2361 25 27.4455 15.3824 27.4455 7.04412C27.4455 6.76471 27.4455 6.5 27.4312 6.22059C28.6358 5.33823 29.6683 4.22059 30.5 2.94118Z" fill="#072F3B"/>
</svg>
