<svg width="14" height="14" viewBox="0 0 14 14" fill="none" xmlns="http://www.w3.org/2000/svg">
<path d="M11.7466 14C11.5308 13.9994 11.3172 13.9561 11.1183 13.8725C10.9193 13.7888 10.7389 13.6667 10.5875 13.5129L6.99999 9.94642L3.41249 13.5153C3.18209 13.749 2.88661 13.9079 2.56457 13.9713C2.24253 14.0347 1.90886 13.9995 1.60707 13.8705C1.30229 13.7479 1.04156 13.5363 0.858925 13.2632C0.67629 12.9901 0.580242 12.6683 0.583324 12.3398V2.91667C0.583324 2.14312 0.890615 1.40125 1.4376 0.854272C1.98458 0.307291 2.72644 0 3.49999 0L10.5 0C10.883 0 11.2623 0.0754418 11.6162 0.222018C11.97 0.368594 12.2916 0.583434 12.5624 0.854272C12.8332 1.12511 13.0481 1.44664 13.1946 1.80051C13.3412 2.15437 13.4167 2.53364 13.4167 2.91667V12.3398C13.4199 12.6681 13.3242 12.9897 13.142 13.2627C12.9598 13.5357 12.6996 13.7475 12.3952 13.8705C12.1898 13.9564 11.9693 14.0005 11.7466 14ZM3.49999 1.16667C3.03586 1.16667 2.59074 1.35104 2.26255 1.67923C1.93437 2.00742 1.74999 2.45254 1.74999 2.91667V12.3398C1.74978 12.437 1.77838 12.5321 1.83218 12.6131C1.88598 12.694 1.96257 12.7572 2.05227 12.7947C2.14197 12.8321 2.24075 12.8422 2.33615 12.8235C2.43154 12.8048 2.51927 12.7583 2.58824 12.6898V12.6898L6.59166 8.71092C6.70095 8.60227 6.8488 8.54129 7.00291 8.54129C7.15702 8.54129 7.30486 8.60227 7.41416 8.71092L11.4129 12.6887C11.4819 12.7572 11.5696 12.8037 11.665 12.8223C11.7604 12.841 11.8592 12.831 11.9489 12.7935C12.0386 12.7561 12.1152 12.6929 12.169 12.6119C12.2228 12.531 12.2514 12.4359 12.2512 12.3387V2.91667C12.2512 2.45254 12.0668 2.00742 11.7386 1.67923C11.4104 1.35104 10.9653 1.16667 10.5012 1.16667H3.49999Z" fill="#12835E"/>
</svg>
