<svg width="12" height="14" viewBox="0 0 12 14" fill="none" xmlns="http://www.w3.org/2000/svg">
<path d="M4.83333 5.83316C4.3692 5.83316 3.92409 6.01753 3.5959 6.34572C3.26771 6.67391 3.08333 7.11903 3.08333 7.58316C3.08333 8.04729 3.26771 8.49241 3.5959 8.8206C3.92409 9.14879 4.3692 9.33316 4.83333 9.33316H7.16667C7.6308 9.33316 8.07591 9.14879 8.4041 8.8206C8.73229 8.49241 8.91667 8.04729 8.91667 7.58316C8.91667 7.11903 8.73229 6.67391 8.4041 6.34572C8.07591 6.01753 7.6308 5.83316 7.16667 5.83316H4.83333ZM7.75 7.58316C7.75 7.73787 7.68854 7.88624 7.57915 7.99564C7.46975 8.10503 7.32138 8.16649 7.16667 8.16649H4.83333C4.67862 8.16649 4.53025 8.10503 4.42085 7.99564C4.31146 7.88624 4.25 7.73787 4.25 7.58316C4.25 7.42845 4.31146 7.28008 4.42085 7.17068C4.53025 7.06128 4.67862 6.99983 4.83333 6.99983H7.16667C7.32138 6.99983 7.46975 7.06128 7.57915 7.17068C7.68854 7.28008 7.75 7.42845 7.75 7.58316ZM8.91667 11.0832C8.91667 11.2379 8.85521 11.3862 8.74581 11.4956C8.63642 11.605 8.48804 11.6665 8.33333 11.6665H3.66667C3.51196 11.6665 3.36358 11.605 3.25419 11.4956C3.14479 11.3862 3.08333 11.2379 3.08333 11.0832C3.08333 10.9285 3.14479 10.7801 3.25419 10.6707C3.36358 10.5613 3.51196 10.4998 3.66667 10.4998H8.33333C8.48804 10.4998 8.63642 10.5613 8.74581 10.6707C8.85521 10.7801 8.91667 10.9285 8.91667 11.0832ZM10.396 1.82041L9.42883 0.854409C9.15867 0.582722 8.83732 0.367304 8.48337 0.220616C8.12942 0.0739289 7.74989 -0.00111526 7.36675 -0.000174366H3.66667C2.8934 0.000751884 2.15208 0.30834 1.60529 0.855121C1.05851 1.4019 0.750926 2.14323 0.75 2.91649V11.0832C0.750926 11.8564 1.05851 12.5978 1.60529 13.1445C2.15208 13.6913 2.8934 13.9989 3.66667 13.9998H8.33333C9.1066 13.9989 9.84792 13.6913 10.3947 13.1445C10.9415 12.5978 11.2491 11.8564 11.25 11.0832V3.88308C11.2511 3.49988 11.1762 3.12026 11.0296 2.76621C10.883 2.41215 10.6677 2.09069 10.396 1.82041V1.82041ZM9.57117 2.64524C9.65325 2.72833 9.7271 2.81917 9.79167 2.91649H8.33333V1.45816C8.43081 1.52205 8.52151 1.59574 8.604 1.67808L9.57117 2.64524ZM10.0833 11.0832C10.0833 11.5473 9.89896 11.9924 9.57077 12.3206C9.24258 12.6488 8.79746 12.8332 8.33333 12.8332H3.66667C3.20254 12.8332 2.75742 12.6488 2.42923 12.3206C2.10104 11.9924 1.91667 11.5473 1.91667 11.0832V2.91649C1.91667 2.45236 2.10104 2.00724 2.42923 1.67906C2.75742 1.35087 3.20254 1.16649 3.66667 1.16649H7.16667V2.91649C7.16667 3.22591 7.28958 3.52266 7.50838 3.74145C7.72717 3.96024 8.02391 4.08316 8.33333 4.08316H10.0833V11.0832Z" fill="#12835E"/>
</svg>
