<svg width="34" height="34" viewBox="0 0 34 34" fill="none" xmlns="http://www.w3.org/2000/svg">
<path d="M2 32H32M2 8.66667V10.3333C2 11.6594 2.52678 12.9312 3.46447 13.8689C4.40215 14.8065 5.67392 15.3333 7 15.3333C8.32608 15.3333 9.59785 14.8065 10.5355 13.8689C11.4732 12.9312 12 11.6594 12 10.3333M2 8.66667H32M2 8.66667L5.33333 2H28.6667L32 8.66667M12 10.3333V8.66667M12 10.3333C12 11.6594 12.5268 12.9312 13.4645 13.8689C14.4021 14.8065 15.6739 15.3333 17 15.3333C18.3261 15.3333 19.5979 14.8065 20.5355 13.8689C21.4732 12.9312 22 11.6594 22 10.3333M22 10.3333V8.66667M22 10.3333C22 11.6594 22.5268 12.9312 23.4645 13.8689C24.4021 14.8065 25.6739 15.3333 27 15.3333C28.3261 15.3333 29.5979 14.8065 30.5355 13.8689C31.4732 12.9312 32 11.6594 32 10.3333V8.66667M5.33333 32V15.0833M28.6667 32V15.0833M12 32V25.3333C12 24.4493 12.3512 23.6014 12.9763 22.9763C13.6014 22.3512 14.4493 22 15.3333 22H18.6667C19.5507 22 20.3986 22.3512 21.0237 22.9763C21.6488 23.6014 22 24.4493 22 25.3333V32" stroke="white" stroke-width="3.33333" stroke-linecap="round" stroke-linejoin="round"/>
</svg>
