<svg width="15" height="14" viewBox="0 0 15 14" fill="none" xmlns="http://www.w3.org/2000/svg">
<path d="M4.79508 13.6674L3.77635 11.992L1.84426 11.5817C1.66862 11.5475 1.5281 11.4591 1.42272 11.3164C1.31733 11.1737 1.27635 11.0171 1.29977 10.8466L1.49297 8.91474L0.175644 7.44449C0.058548 7.31912 0 7.17096 0 7C0 6.82904 0.058548 6.68088 0.175644 6.55551L1.49297 5.08526L1.29977 3.15342C1.27635 2.98246 1.31733 2.82563 1.42272 2.68294C1.5281 2.54025 1.66862 2.45203 1.84426 2.4183L3.77635 2.00799L4.79508 0.332596C4.88876 0.184431 5.01756 0.0845911 5.1815 0.0330754C5.34543 -0.0184403 5.50937 -0.00977835 5.6733 0.0590612L7.5 0.811281L9.3267 0.0590612C9.49063 -0.00932246 9.65457 -0.0179844 9.8185 0.0330754C9.98244 0.0841352 10.1112 0.183975 10.2049 0.332596L11.2237 2.00799L13.1557 2.4183C13.3314 2.45249 13.4719 2.54093 13.5773 2.68363C13.6827 2.82632 13.7237 2.98292 13.7002 3.15342L13.507 5.08526L14.8244 6.55551C14.9415 6.68088 15 6.82904 15 7C15 7.17096 14.9415 7.31912 14.8244 7.44449L13.507 8.91474L13.7002 10.8466C13.7237 11.0175 13.6827 11.1744 13.5773 11.3171C13.4719 11.4598 13.3314 11.548 13.1557 11.5817L11.2237 11.992L10.2049 13.6674C10.1112 13.8156 9.98244 13.9154 9.8185 13.9669C9.65457 14.0184 9.49063 14.0098 9.3267 13.9409L7.5 13.1887L5.6733 13.9409C5.50937 14.0093 5.34543 14.018 5.1815 13.9669C5.01756 13.9159 4.88876 13.816 4.79508 13.6674ZM6.7623 7.47869L5.74356 6.50422C5.61475 6.37885 5.45363 6.31616 5.26019 6.31616C5.06675 6.31616 4.9 6.38455 4.75995 6.52131C4.63115 6.64668 4.56675 6.80625 4.56675 7C4.56675 7.19375 4.63115 7.35332 4.75995 7.47869L6.27049 8.94893C6.41101 9.0857 6.57494 9.15408 6.7623 9.15408C6.94965 9.15408 7.11358 9.0857 7.2541 8.94893L10.24 6.04263C10.3806 5.90586 10.4478 5.7463 10.4417 5.56394C10.4356 5.38159 10.3684 5.22203 10.24 5.08526C10.0995 4.94849 9.93255 4.87737 9.73911 4.8719C9.54567 4.86643 9.37892 4.93185 9.23888 5.06816L6.7623 7.47869Z" fill="#12835E"/>
</svg>
