<svg width="55" height="55" viewBox="0 0 55 55" fill="none" xmlns="http://www.w3.org/2000/svg">
<g filter="url(#filter0_d_213_87)">
<path d="M37.746 28.2C37.934 26.649 38.075 25.098 38.075 23.5C38.075 21.902 37.934 20.351 37.746 18.8H45.689C46.065 20.304 46.3 21.8785 46.3 23.5C46.3 25.1215 46.065 26.696 45.689 28.2M33.5865 41.266C34.9965 38.6575 36.0775 35.8375 36.8295 32.9H43.762C41.4852 36.8204 37.8732 39.7902 33.5865 41.266ZM32.999 28.2H22.001C21.766 26.649 21.625 25.098 21.625 23.5C21.625 21.902 21.766 20.3275 22.001 18.8H32.999C33.2105 20.3275 33.375 21.902 33.375 23.5C33.375 25.098 33.2105 26.649 32.999 28.2ZM27.5 42.206C25.5495 39.386 23.975 36.2605 23.0115 32.9H31.9885C31.025 36.2605 29.4505 39.386 27.5 42.206ZM18.1 14.1H11.238C13.4913 10.169 17.1008 7.19449 21.39 5.734C19.98 8.3425 18.9225 11.1625 18.1 14.1ZM11.238 32.9H18.1C18.9225 35.8375 19.98 38.6575 21.39 41.266C17.1098 39.7894 13.5054 36.8191 11.238 32.9ZM9.311 28.2C8.935 26.696 8.7 25.1215 8.7 23.5C8.7 21.8785 8.935 20.304 9.311 18.8H17.254C17.066 20.351 16.925 21.902 16.925 23.5C16.925 25.098 17.066 26.649 17.254 28.2M27.5 4.7705C29.4505 7.5905 31.025 10.7395 31.9885 14.1H23.0115C23.975 10.7395 25.5495 7.5905 27.5 4.7705ZM43.762 14.1H36.8295C36.094 11.1894 35.0049 8.37986 33.5865 5.734C37.9105 7.2145 41.506 10.199 43.762 14.1ZM27.5 0C14.5045 0 4 10.575 4 23.5C4 29.7326 6.47589 35.7099 10.883 40.117C13.0652 42.2992 15.6558 44.0302 18.5069 45.2112C21.3581 46.3922 24.4139 47 27.5 47C33.7326 47 39.7099 44.5241 44.117 40.117C48.5241 35.7099 51 29.7326 51 23.5C51 20.4139 50.3922 17.3581 49.2112 14.5069C48.0302 11.6558 46.2992 9.06517 44.117 6.88299C41.9348 4.70081 39.3442 2.96982 36.4931 1.78883C33.6419 0.607846 30.5861 0 27.5 0Z" fill="#FFB54E"/>
</g>
<defs>
<filter id="filter0_d_213_87" x="0" y="0" width="55" height="55" filterUnits="userSpaceOnUse" color-interpolation-filters="sRGB">
<feFlood flood-opacity="0" result="BackgroundImageFix"/>
<feColorMatrix in="SourceAlpha" type="matrix" values="0 0 0 0 0 0 0 0 0 0 0 0 0 0 0 0 0 0 127 0" result="hardAlpha"/>
<feOffset dy="4"/>
<feGaussianBlur stdDeviation="2"/>
<feComposite in2="hardAlpha" operator="out"/>
<feColorMatrix type="matrix" values="0 0 0 0 0 0 0 0 0 0 0 0 0 0 0 0 0 0 0.25 0"/>
<feBlend mode="normal" in2="BackgroundImageFix" result="effect1_dropShadow_213_87"/>
<feBlend mode="normal" in="SourceGraphic" in2="effect1_dropShadow_213_87" result="shape"/>
</filter>
</defs>
</svg>
